<svg xmlns="http://www.w3.org/2000/svg" xmlns:xlink="http://www.w3.org/1999/xlink" width="192" zoomAndPan="magnify" viewBox="0 0 144 112.499997" height="150" preserveAspectRatio="xMidYMid meet" version="1.0"><defs><clipPath id="486de4ef68"><path d="M 0.320312 0 L 143.679688 0 L 143.679688 111.742188 L 0.320312 111.742188 Z M 0.320312 0 " clip-rule="nonzero"/></clipPath><clipPath id="0ee129f091"><path d="M 14 0 L 143.679688 0 L 143.679688 96 L 14 96 Z M 14 0 " clip-rule="nonzero"/></clipPath><clipPath id="256c4cec2f"><path d="M 0.320312 105.859375 L 37.652344 105.859375 L 37.652344 111.832031 L 0.320312 111.832031 Z M 0.320312 105.859375 " clip-rule="nonzero"/></clipPath></defs><g clip-path="url(#486de4ef68)"><path fill="#ffffff" d="M 283.546875 -11.113281 C 272.375 56.53125 213.472656 108.289062 142.726562 108.289062 C 71.976562 108.289062 13.074219 56.53125 1.902344 -11.113281 L -1.910156 -11.113281 C 9.289062 58.609375 69.886719 112.054688 142.726562 112.054688 C 215.5625 112.054688 276.160156 58.609375 287.359375 -11.113281 Z M 142.726562 -177.15625 C 205.296875 -177.15625 258.597656 -136.671875 277.804688 -80.527344 L 281.785156 -80.527344 C 262.417969 -138.789062 207.40625 -180.921875 142.726562 -180.921875 C 78.042969 -180.921875 23.03125 -138.789062 3.664062 -80.527344 L 7.644531 -80.527344 C 26.851562 -136.671875 80.152344 -177.15625 142.726562 -177.15625 Z M 142.726562 -177.15625 " fill-opacity="1" fill-rule="nonzero"/></g><g clip-path="url(#0ee129f091)"><path fill="#ffffff" d="M 269.871094 -11.113281 C 258.863281 49.066406 206.039062 94.824219 142.726562 94.824219 C 79.410156 94.824219 26.585938 49.066406 15.578125 -11.113281 L 14.617188 -11.113281 C 25.636719 49.59375 78.890625 95.765625 142.726562 95.765625 C 206.558594 95.765625 259.8125 49.59375 270.832031 -11.113281 Z M 142.726562 -163.691406 C 197.769531 -163.691406 244.886719 -129.105469 263.492188 -80.527344 L 264.488281 -80.527344 C 245.847656 -129.640625 198.296875 -164.628906 142.726562 -164.628906 C 87.15625 -164.628906 39.601562 -129.640625 20.960938 -80.527344 L 21.957031 -80.527344 C 40.5625 -129.105469 87.679688 -163.691406 142.726562 -163.691406 Z M 142.726562 -163.691406 " fill-opacity="1" fill-rule="nonzero"/></g><g clip-path="url(#256c4cec2f)"><path fill="#ffde59" d="M 3.632812 111.996094 C 1.941406 111.996094 0.566406 110.621094 0.566406 108.929688 C 0.566406 107.238281 1.941406 105.859375 3.632812 105.859375 C 5.324219 105.859375 6.703125 107.238281 6.703125 108.929688 C 6.703125 110.621094 5.324219 111.996094 3.632812 111.996094 Z M 3.632812 106.996094 C 2.566406 106.996094 1.703125 107.863281 1.703125 108.929688 C 1.703125 109.992188 2.566406 110.859375 3.632812 110.859375 C 4.699219 110.859375 5.566406 109.992188 5.566406 108.929688 C 5.566406 107.863281 4.699219 106.996094 3.632812 106.996094 Z M 13.792969 111.996094 C 12.101562 111.996094 10.726562 110.621094 10.726562 108.929688 C 10.726562 107.238281 12.101562 105.859375 13.792969 105.859375 C 15.484375 105.859375 16.863281 107.238281 16.863281 108.929688 C 16.863281 110.621094 15.484375 111.996094 13.792969 111.996094 Z M 13.792969 106.996094 C 12.726562 106.996094 11.863281 107.863281 11.863281 108.929688 C 11.863281 109.992188 12.726562 110.859375 13.792969 110.859375 C 14.859375 110.859375 15.726562 109.992188 15.726562 108.929688 C 15.726562 107.863281 14.859375 106.996094 13.792969 106.996094 Z M 23.953125 111.996094 C 22.261719 111.996094 20.886719 110.621094 20.886719 108.929688 C 20.886719 107.238281 22.261719 105.859375 23.953125 105.859375 C 25.644531 105.859375 27.023438 107.238281 27.023438 108.929688 C 27.023438 110.621094 25.644531 111.996094 23.953125 111.996094 Z M 23.953125 106.996094 C 22.886719 106.996094 22.023438 107.863281 22.023438 108.929688 C 22.023438 109.992188 22.886719 110.859375 23.953125 110.859375 C 25.019531 110.859375 25.886719 109.992188 25.886719 108.929688 C 25.886719 107.863281 25.019531 106.996094 23.953125 106.996094 Z M 34.113281 111.996094 C 32.421875 111.996094 31.046875 110.621094 31.046875 108.929688 C 31.046875 107.238281 32.421875 105.859375 34.113281 105.859375 C 35.804688 105.859375 37.183594 107.238281 37.183594 108.929688 C 37.183594 110.621094 35.804688 111.996094 34.113281 111.996094 Z M 34.113281 106.996094 C 33.050781 106.996094 32.183594 107.863281 32.183594 108.929688 C 32.183594 109.992188 33.050781 110.859375 34.113281 110.859375 C 35.179688 110.859375 36.046875 109.992188 36.046875 108.929688 C 36.046875 107.863281 35.179688 106.996094 34.113281 106.996094 Z M 34.113281 106.996094 " fill-opacity="1" fill-rule="nonzero"/></g></svg>