<svg xmlns="http://www.w3.org/2000/svg" xmlns:xlink="http://www.w3.org/1999/xlink" width="192" zoomAndPan="magnify" viewBox="0 0 144 112.499997" height="150" preserveAspectRatio="xMidYMid meet" version="1.0"><defs><clipPath id="c4b4f7e6b4"><path d="M 107 0 L 143.679688 0 L 143.679688 59 L 107 59 Z M 107 0 " clip-rule="nonzero"/></clipPath><clipPath id="6b96009e31"><path d="M 110 76 L 143.679688 76 L 143.679688 112 L 110 112 Z M 110 76 " clip-rule="nonzero"/></clipPath><clipPath id="0c5e95109a"><path d="M 60.378906 71 L 126 71 L 126 112 L 60.378906 112 Z M 60.378906 71 " clip-rule="nonzero"/></clipPath><clipPath id="4f9bf47923"><path d="M 91 58 L 143.679688 58 L 143.679688 112 L 91 112 Z M 91 58 " clip-rule="nonzero"/></clipPath><clipPath id="b547e6eb04"><path d="M 121 11 L 143.679688 11 L 143.679688 48 L 121 48 Z M 121 11 " clip-rule="nonzero"/></clipPath><clipPath id="a1f0b95579"><path d="M 0.320312 33.558594 L 14 33.558594 L 14 53.71875 L 0.320312 53.71875 Z M 0.320312 33.558594 " clip-rule="nonzero"/></clipPath><clipPath id="355c2b0c0f"><path d="M 15 33.558594 L 29 33.558594 L 29 53.71875 L 15 53.71875 Z M 15 33.558594 " clip-rule="nonzero"/></clipPath><clipPath id="cdab0515bc"><path d="M 29 33.558594 L 44 33.558594 L 44 53.71875 L 29 53.71875 Z M 29 33.558594 " clip-rule="nonzero"/></clipPath><clipPath id="480886115c"><path d="M 44 33.558594 L 57.8125 33.558594 L 57.8125 53.71875 L 44 53.71875 Z M 44 33.558594 " clip-rule="nonzero"/></clipPath></defs><g clip-path="url(#c4b4f7e6b4)"><path fill="#04608f" d="M 144.007812 1.460938 L 144.007812 9.25 C 141.832031 8.515625 139.503906 8.117188 137.085938 8.117188 C 125.167969 8.117188 115.507812 17.742188 115.507812 29.605469 C 115.507812 41.476562 125.167969 51.097656 137.085938 51.097656 C 139.503906 51.097656 141.832031 50.703125 144.007812 49.964844 L 144.007812 57.753906 C 141.785156 58.292969 139.46875 58.582031 137.085938 58.582031 C 121.015625 58.582031 107.996094 45.609375 107.996094 29.605469 C 107.996094 13.605469 121.015625 0.632812 137.085938 0.632812 C 139.46875 0.632812 141.785156 0.921875 144.007812 1.460938 Z M 144.007812 1.460938 " fill-opacity="1" fill-rule="evenodd"/></g><g clip-path="url(#6b96009e31)"><path fill="#f3b910" d="M 144.007812 78.605469 L 144.007812 111.367188 L 112.570312 111.367188 C 111.242188 108.355469 110.503906 105.027344 110.503906 101.527344 C 110.503906 87.964844 121.542969 76.972656 135.15625 76.972656 C 138.277344 76.972656 141.261719 77.550781 144.007812 78.605469 Z M 144.007812 78.605469 " fill-opacity="1" fill-rule="evenodd"/></g><path fill="#04608f" d="M 101.125 101.484375 C 103.8125 103.941406 105.492188 107.457031 105.492188 111.367188 L 110.179688 111.367188 C 110.179688 104.699219 106.550781 98.871094 101.148438 95.734375 C 98.472656 94.183594 95.359375 93.296875 92.035156 93.296875 C 91.960938 93.296875 91.890625 93.296875 91.824219 93.296875 C 81.898438 93.410156 73.886719 101.457031 73.886719 111.367188 L 78.574219 111.367188 C 78.574219 103.972656 84.589844 97.976562 92.011719 97.964844 C 92.019531 97.964844 92.027344 97.964844 92.035156 97.964844 C 95.539062 97.964844 98.730469 99.300781 101.125 101.484375 Z M 91.824219 93.324219 L 91.8125 94.15625 C 91.8125 93.878906 91.8125 93.601562 91.824219 93.324219 Z M 91.824219 93.324219 " fill-opacity="1" fill-rule="evenodd"/><g clip-path="url(#0c5e95109a)"><path fill="#04608f" d="M 105.269531 82.929688 C 112.558594 87.109375 117.464844 94.949219 117.464844 103.925781 C 117.464844 106.523438 117.058594 109.023438 116.296875 111.367188 L 125.074219 111.367188 C 125.636719 108.980469 125.933594 106.488281 125.933594 103.925781 C 125.933594 92.242188 119.773438 81.996094 110.503906 76.226562 C 107.195312 74.160156 103.488281 72.671875 99.519531 71.894531 C 97.460938 71.492188 95.335938 71.28125 93.15625 71.28125 C 75.050781 71.28125 60.378906 85.894531 60.378906 103.925781 C 60.378906 106.488281 60.675781 108.980469 61.238281 111.367188 L 70.019531 111.367188 C 69.257812 109.023438 68.847656 106.523438 68.847656 103.925781 C 68.847656 90.554688 79.730469 79.710938 93.15625 79.710938 C 93.710938 79.710938 94.257812 79.730469 94.804688 79.765625 C 98.597656 80.019531 102.152344 81.140625 105.269531 82.929688 Z M 105.269531 82.929688 " fill-opacity="1" fill-rule="evenodd"/></g><g clip-path="url(#4f9bf47923)"><path fill="#f3b910" d="M 101.125 101.484375 C 98.730469 99.300781 95.539062 97.964844 92.035156 97.964844 C 92.027344 97.964844 92.019531 97.964844 92.011719 97.964844 C 92.519531 102.777344 93.976562 107.308594 96.195312 111.367188 L 103.65625 111.367188 C 102.304688 108.300781 101.433594 104.976562 101.125 101.484375 Z M 99.519531 71.894531 C 103.488281 72.671875 107.195312 74.160156 110.503906 76.226562 C 116.210938 70.65625 124.027344 67.222656 132.648438 67.222656 C 136.652344 67.222656 140.480469 67.964844 144.007812 69.316406 L 144.007812 61.738281 C 139.191406 59.386719 133.777344 58.058594 128.050781 58.058594 C 116.46875 58.058594 106.15625 63.472656 99.519531 71.894531 Z M 92.035156 93.296875 C 95.359375 93.296875 98.472656 94.183594 101.148438 95.734375 C 101.589844 91.105469 103.039062 86.757812 105.269531 82.929688 C 102.152344 81.140625 98.597656 80.019531 94.804688 79.765625 C 92.988281 83.925781 91.933594 88.496094 91.824219 93.296875 C 91.890625 93.296875 91.960938 93.296875 92.035156 93.296875 Z M 92.035156 93.296875 " fill-opacity="1" fill-rule="evenodd"/></g><g clip-path="url(#b547e6eb04)"><path fill="#f3b910" d="M 121.539062 29.605469 C 121.539062 39.589844 129.664062 47.683594 139.6875 47.683594 C 141.175781 47.683594 142.621094 47.503906 144.007812 47.164062 L 144.007812 42.308594 C 142.648438 42.765625 141.195312 43.015625 139.6875 43.015625 C 132.253906 43.015625 126.226562 37.011719 126.226562 29.605469 C 126.226562 22.207031 132.253906 16.203125 139.6875 16.203125 C 141.195312 16.203125 142.648438 16.449219 144.007812 16.910156 L 144.007812 12.050781 C 142.621094 11.714844 141.175781 11.53125 139.6875 11.53125 C 129.664062 11.53125 121.539062 19.625 121.539062 29.605469 Z M 121.539062 29.605469 " fill-opacity="1" fill-rule="evenodd"/></g><g clip-path="url(#a1f0b95579)"><path fill="#080202" d="M 3.921875 53.710938 L 0.316406 50.070312 L 6.519531 43.820312 L 0.316406 37.5625 L 3.925781 33.921875 L 13.734375 43.820312 L 10.265625 47.316406 Z M 0.859375 50.070312 L 3.925781 53.164062 L 9.992188 47.039062 L 13.191406 43.820312 L 3.921875 34.46875 L 0.859375 37.5625 L 7.0625 43.820312 Z M 0.859375 50.070312 " fill-opacity="1" fill-rule="nonzero"/></g><g clip-path="url(#355c2b0c0f)"><path fill="#080202" d="M 18.617188 53.59375 L 15.007812 49.949219 L 21.210938 43.699219 L 15.007812 37.441406 L 18.617188 33.800781 L 28.429688 43.703125 L 24.957031 47.199219 Z M 15.550781 49.953125 L 18.617188 53.046875 L 24.6875 46.921875 L 27.886719 43.703125 L 18.617188 34.351562 L 15.550781 37.441406 L 21.753906 43.703125 Z M 15.550781 49.953125 " fill-opacity="1" fill-rule="nonzero"/></g><g clip-path="url(#cdab0515bc)"><path fill="#080202" d="M 33.3125 53.472656 L 29.703125 49.832031 L 35.90625 43.582031 L 29.703125 37.324219 L 33.3125 33.683594 L 43.121094 43.582031 L 39.652344 47.078125 Z M 30.246094 49.835938 L 33.3125 52.925781 L 39.378906 46.804688 L 42.578125 43.582031 L 33.3125 34.234375 L 30.246094 37.324219 L 36.449219 43.582031 Z M 30.246094 49.835938 " fill-opacity="1" fill-rule="nonzero"/></g><g clip-path="url(#480886115c)"><path fill="#080202" d="M 48.007812 53.355469 L 44.398438 49.714844 L 50.601562 43.464844 L 44.398438 37.203125 L 48.007812 33.566406 L 57.816406 43.464844 L 54.34375 46.960938 Z M 44.941406 49.714844 L 48.007812 52.808594 L 54.070312 46.6875 L 57.273438 43.464844 L 48.003906 34.113281 L 44.9375 37.207031 L 51.140625 43.464844 Z M 44.941406 49.714844 " fill-opacity="1" fill-rule="nonzero"/></g></svg>