<svg xmlns="http://www.w3.org/2000/svg" xmlns:xlink="http://www.w3.org/1999/xlink" width="512" zoomAndPan="magnify" viewBox="0 0 384 383.999986" height="512" preserveAspectRatio="xMidYMid meet" version="1.0"><defs><clipPath id="dd59a2c1f9"><path d="M 65 38.398438 L 126 38.398438 L 126 99 L 65 99 Z M 65 38.398438 " clip-rule="nonzero"/></clipPath><clipPath id="a844b5dd40"><path d="M 73 89 L 332 89 L 332 346.648438 L 73 346.648438 Z M 73 89 " clip-rule="nonzero"/></clipPath><clipPath id="a0f65b5043"><path d="M 383 296.34375 L 384 296.34375 L 384 298 L 383 298 Z M 383 296.34375 " clip-rule="nonzero"/></clipPath><clipPath id="f680b60273"><path d="M 373 296.34375 L 375 296.34375 L 375 298 L 373 298 Z M 373 296.34375 " clip-rule="nonzero"/></clipPath><clipPath id="fec98fbc8e"><path d="M 364 296.34375 L 366 296.34375 L 366 298 L 364 298 Z M 364 296.34375 " clip-rule="nonzero"/></clipPath><clipPath id="1f389cb0d6"><path d="M 354 296.34375 L 356 296.34375 L 356 298 L 354 298 Z M 354 296.34375 " clip-rule="nonzero"/></clipPath><clipPath id="29cd047fb1"><path d="M 345 296.34375 L 347 296.34375 L 347 298 L 345 298 Z M 345 296.34375 " clip-rule="nonzero"/></clipPath><clipPath id="d2b01d8cb8"><path d="M 335 296.34375 L 337 296.34375 L 337 298 L 335 298 Z M 335 296.34375 " clip-rule="nonzero"/></clipPath><clipPath id="69c4a854aa"><path d="M 326 296.34375 L 328 296.34375 L 328 298 L 326 298 Z M 326 296.34375 " clip-rule="nonzero"/></clipPath><clipPath id="d1436a5cf9"><path d="M 316 296.34375 L 318 296.34375 L 318 298 L 316 298 Z M 316 296.34375 " clip-rule="nonzero"/></clipPath><clipPath id="afe5e5820b"><path d="M 307 296.34375 L 309 296.34375 L 309 298 L 307 298 Z M 307 296.34375 " clip-rule="nonzero"/></clipPath><clipPath id="ff5e782539"><path d="M 238.109375 310 L 266 310 L 266 354 L 238.109375 354 Z M 238.109375 310 " clip-rule="nonzero"/></clipPath></defs><g clip-path="url(#dd59a2c1f9)"><path fill="#ffb93e" d="M 125.027344 68.394531 C 125.027344 69.375 124.980469 70.355469 124.882812 71.332031 C 124.789062 72.308594 124.644531 73.277344 124.453125 74.238281 C 124.261719 75.203125 124.023438 76.152344 123.738281 77.089844 C 123.453125 78.03125 123.121094 78.953125 122.746094 79.859375 C 122.371094 80.765625 121.953125 81.652344 121.488281 82.519531 C 121.027344 83.382812 120.523438 84.222656 119.976562 85.039062 C 119.433594 85.855469 118.847656 86.644531 118.226562 87.402344 C 117.605469 88.160156 116.945312 88.886719 116.25 89.582031 C 115.558594 90.273438 114.832031 90.933594 114.074219 91.554688 C 113.3125 92.179688 112.527344 92.761719 111.710938 93.308594 C 110.894531 93.851562 110.054688 94.355469 109.1875 94.820312 C 108.324219 95.28125 107.4375 95.699219 106.53125 96.078125 C 105.625 96.453125 104.703125 96.78125 103.761719 97.066406 C 102.824219 97.351562 101.871094 97.589844 100.910156 97.78125 C 99.945312 97.972656 98.976562 98.117188 98 98.210938 C 97.023438 98.308594 96.046875 98.355469 95.0625 98.355469 C 94.082031 98.355469 93.105469 98.308594 92.128906 98.210938 C 91.152344 98.117188 90.179688 97.972656 89.21875 97.78125 C 88.257812 97.589844 87.304688 97.351562 86.367188 97.066406 C 85.425781 96.78125 84.503906 96.453125 83.597656 96.078125 C 82.691406 95.699219 81.804688 95.28125 80.9375 94.820312 C 80.074219 94.355469 79.234375 93.851562 78.417969 93.308594 C 77.601562 92.761719 76.8125 92.179688 76.054688 91.554688 C 75.296875 90.933594 74.570312 90.273438 73.875 89.582031 C 73.183594 88.886719 72.523438 88.160156 71.902344 87.402344 C 71.277344 86.644531 70.695312 85.855469 70.148438 85.039062 C 69.605469 84.222656 69.101562 83.382812 68.636719 82.519531 C 68.175781 81.652344 67.757812 80.765625 67.382812 79.859375 C 67.003906 78.953125 66.675781 78.03125 66.390625 77.089844 C 66.105469 76.152344 65.867188 75.203125 65.675781 74.238281 C 65.484375 73.277344 65.339844 72.308594 65.246094 71.332031 C 65.148438 70.355469 65.101562 69.375 65.101562 68.394531 C 65.101562 67.410156 65.148438 66.433594 65.246094 65.457031 C 65.339844 64.480469 65.484375 63.511719 65.675781 62.546875 C 65.867188 61.585938 66.105469 60.632812 66.390625 59.695312 C 66.675781 58.757812 67.003906 57.832031 67.382812 56.925781 C 67.757812 56.019531 68.175781 55.132812 68.636719 54.269531 C 69.101562 53.402344 69.605469 52.5625 70.148438 51.746094 C 70.695312 50.929688 71.277344 50.144531 71.902344 49.382812 C 72.523438 48.625 73.183594 47.898438 73.875 47.207031 C 74.570312 46.511719 75.296875 45.851562 76.054688 45.230469 C 76.8125 44.609375 77.601562 44.023438 78.417969 43.480469 C 79.234375 42.933594 80.074219 42.429688 80.9375 41.96875 C 81.804688 41.503906 82.691406 41.085938 83.597656 40.710938 C 84.503906 40.335938 85.425781 40.003906 86.367188 39.71875 C 87.304688 39.433594 88.257812 39.195312 89.21875 39.003906 C 90.179688 38.8125 91.152344 38.671875 92.128906 38.574219 C 93.105469 38.476562 94.082031 38.429688 95.0625 38.429688 C 96.046875 38.429688 97.023438 38.476562 98 38.574219 C 98.976562 38.671875 99.945312 38.8125 100.910156 39.003906 C 101.871094 39.195312 102.824219 39.433594 103.761719 39.71875 C 104.703125 40.003906 105.625 40.335938 106.53125 40.710938 C 107.4375 41.085938 108.324219 41.503906 109.1875 41.96875 C 110.054688 42.429688 110.894531 42.933594 111.710938 43.480469 C 112.527344 44.023438 113.3125 44.609375 114.074219 45.230469 C 114.832031 45.851562 115.558594 46.511719 116.25 47.207031 C 116.945312 47.898438 117.605469 48.625 118.226562 49.382812 C 118.847656 50.144531 119.433594 50.929688 119.976562 51.746094 C 120.523438 52.5625 121.027344 53.402344 121.488281 54.269531 C 121.953125 55.132812 122.371094 56.019531 122.746094 56.925781 C 123.121094 57.832031 123.453125 58.757812 123.738281 59.695312 C 124.023438 60.632812 124.261719 61.585938 124.453125 62.546875 C 124.644531 63.511719 124.789062 64.480469 124.882812 65.457031 C 124.980469 66.433594 125.027344 67.410156 125.027344 68.394531 Z M 125.027344 68.394531 " fill-opacity="1" fill-rule="nonzero"/></g><g clip-path="url(#a844b5dd40)"><path fill="#ffffff" d="M 202.316406 346.527344 C 184.957031 346.527344 168.09375 343.125 152.21875 336.410156 C 136.886719 329.921875 123.128906 320.648438 111.324219 308.832031 C 99.507812 297.015625 90.234375 283.253906 83.746094 267.9375 C 77.03125 252.0625 73.628906 235.203125 73.628906 217.839844 C 73.628906 200.480469 77.03125 183.617188 83.746094 167.742188 C 90.234375 152.410156 99.507812 138.652344 111.324219 126.847656 C 123.140625 115.03125 136.902344 105.757812 152.21875 99.273438 C 168.09375 92.554688 184.957031 89.15625 202.316406 89.15625 C 219.675781 89.15625 236.539062 92.554688 252.429688 99.273438 C 267.757812 105.757812 281.519531 115.03125 293.324219 126.847656 C 305.140625 138.667969 314.414062 152.425781 320.898438 167.742188 C 327.617188 183.617188 331.015625 200.480469 331.015625 217.839844 C 331.015625 235.203125 327.617188 252.0625 320.898438 267.9375 C 314.414062 283.269531 305.140625 297.03125 293.324219 308.832031 C 281.503906 320.648438 267.746094 329.921875 252.429688 336.410156 C 236.539062 343.125 219.691406 346.527344 202.316406 346.527344 Z M 202.316406 132.023438 C 154.992188 132.023438 116.496094 170.515625 116.496094 217.839844 C 116.496094 265.164062 154.992188 303.660156 202.316406 303.660156 C 249.640625 303.660156 288.148438 265.164062 288.148438 217.839844 C 288.148438 170.515625 249.640625 132.023438 202.316406 132.023438 Z M 202.316406 132.023438 " fill-opacity="1" fill-rule="nonzero"/></g><path fill="#ffb93e" d="M 234.507812 180.574219 L 258.886719 204.953125 C 266.589844 209.910156 274.933594 213.441406 283.5625 215.527344 L 223.921875 155.882812 C 226.035156 164.527344 229.550781 172.886719 234.507812 180.574219 Z M 234.507812 180.574219 " fill-opacity="1" fill-rule="nonzero"/><path fill="#ffb93e" d="M 221.636719 137.664062 L 301.808594 217.839844 C 306.210938 217.898438 310.625 217.582031 315 216.925781 L 222.5625 124.492188 C 221.890625 128.851562 221.59375 133.265625 221.636719 137.664062 Z M 221.636719 137.664062 " fill-opacity="1" fill-rule="nonzero"/><path fill="#ffb93e" d="M 225.59375 111.574219 L 327.902344 213.882812 C 331.332031 212.769531 334.6875 211.425781 337.960938 209.851562 L 229.621094 101.515625 C 228.050781 104.800781 226.707031 108.160156 225.59375 111.574219 Z M 225.59375 111.574219 " fill-opacity="1" fill-rule="nonzero"/><path fill="#ffb93e" d="M 235.4375 91.382812 L 348.105469 204.050781 C 350.863281 202.195312 353.523438 200.152344 356.078125 197.921875 L 241.554688 83.410156 C 239.324219 85.96875 237.296875 88.625 235.4375 91.382812 Z M 235.4375 91.382812 " fill-opacity="1" fill-rule="nonzero"/><path fill="#ffb93e" d="M 249.527344 75.4375 L 364.039062 189.949219 C 366.265625 187.390625 368.3125 184.734375 370.167969 181.976562 L 257.5 69.308594 C 254.757812 71.164062 252.085938 73.207031 249.527344 75.4375 Z M 249.527344 75.4375 " fill-opacity="1" fill-rule="nonzero"/><path fill="#ffb93e" d="M 267.632812 63.507812 L 375.96875 171.84375 C 377.542969 168.558594 378.882812 165.199219 380 161.785156 L 277.691406 59.476562 C 274.277344 60.578125 270.917969 61.921875 267.632812 63.507812 Z M 267.632812 63.507812 " fill-opacity="1" fill-rule="nonzero"/><path fill="#ffb93e" d="M 290.609375 56.433594 L 383.042969 148.867188 C 383.699219 144.496094 384 140.09375 383.957031 135.679688 L 303.78125 55.503906 C 299.382812 55.460938 294.980469 55.777344 290.609375 56.433594 Z M 290.609375 56.433594 " fill-opacity="1" fill-rule="nonzero"/><path fill="#ffb93e" d="M 371.082031 92.769531 L 346.707031 68.394531 C 339.003906 63.433594 330.660156 59.90625 322.027344 57.820312 L 381.671875 117.460938 C 379.570312 108.816406 376.042969 100.472656 371.082031 92.769531 Z M 371.082031 92.769531 " fill-opacity="1" fill-rule="nonzero"/><path fill="#ffb93e" d="M 0 253.0625 C 0 200.566406 42.550781 158 95.0625 158 C 147.574219 158 190.128906 200.550781 190.128906 253.0625 " fill-opacity="1" fill-rule="nonzero"/><path fill="#000000" d="M 337.058594 383.34375 C 337.058594 383.507812 337 383.644531 336.886719 383.761719 C 336.769531 383.875 336.632812 383.933594 336.46875 383.933594 C 336.304688 383.933594 336.167969 383.875 336.054688 383.761719 C 335.9375 383.644531 335.878906 383.507812 335.878906 383.34375 C 335.878906 383.183594 335.9375 383.042969 336.054688 382.929688 C 336.167969 382.816406 336.304688 382.757812 336.46875 382.757812 C 336.632812 382.757812 336.769531 382.816406 336.886719 382.929688 C 337 383.042969 337.058594 383.183594 337.058594 383.34375 Z M 337.058594 383.34375 " fill-opacity="1" fill-rule="nonzero"/><path fill="#000000" d="M 327.5625 383.34375 C 327.5625 383.507812 327.507812 383.644531 327.390625 383.761719 C 327.277344 383.875 327.136719 383.933594 326.976562 383.933594 C 326.8125 383.933594 326.671875 383.875 326.558594 383.761719 C 326.445312 383.644531 326.386719 383.507812 326.386719 383.34375 C 326.386719 383.183594 326.445312 383.042969 326.558594 382.929688 C 326.671875 382.816406 326.8125 382.757812 326.976562 382.757812 C 327.136719 382.757812 327.277344 382.816406 327.390625 382.929688 C 327.507812 383.042969 327.5625 383.183594 327.5625 383.34375 Z M 327.5625 383.34375 " fill-opacity="1" fill-rule="nonzero"/><path fill="#000000" d="M 318.0625 383.34375 C 318.0625 383.507812 318.007812 383.644531 317.890625 383.761719 C 317.777344 383.875 317.636719 383.933594 317.476562 383.933594 C 317.3125 383.933594 317.175781 383.875 317.058594 383.761719 C 316.945312 383.644531 316.886719 383.507812 316.886719 383.34375 C 316.886719 383.183594 316.945312 383.042969 317.058594 382.929688 C 317.175781 382.816406 317.3125 382.757812 317.476562 382.757812 C 317.636719 382.757812 317.777344 382.816406 317.890625 382.929688 C 318.007812 383.042969 318.0625 383.183594 318.0625 383.34375 Z M 318.0625 383.34375 " fill-opacity="1" fill-rule="nonzero"/><path fill="#000000" d="M 308.570312 383.34375 C 308.570312 383.507812 308.511719 383.644531 308.398438 383.761719 C 308.28125 383.875 308.144531 383.933594 307.980469 383.933594 C 307.820312 383.933594 307.679688 383.875 307.566406 383.761719 C 307.449219 383.644531 307.394531 383.507812 307.394531 383.34375 C 307.394531 383.183594 307.449219 383.042969 307.566406 382.929688 C 307.679688 382.816406 307.820312 382.757812 307.980469 382.757812 C 308.144531 382.757812 308.28125 382.816406 308.398438 382.929688 C 308.511719 383.042969 308.570312 383.183594 308.570312 383.34375 Z M 308.570312 383.34375 " fill-opacity="1" fill-rule="nonzero"/><path fill="#000000" d="M 299.070312 383.34375 C 299.070312 383.507812 299.011719 383.644531 298.898438 383.761719 C 298.785156 383.875 298.644531 383.933594 298.480469 383.933594 C 298.320312 383.933594 298.179688 383.875 298.066406 383.761719 C 297.949219 383.644531 297.894531 383.507812 297.894531 383.34375 C 297.894531 383.183594 297.949219 383.042969 298.066406 382.929688 C 298.179688 382.816406 298.320312 382.757812 298.480469 382.757812 C 298.644531 382.757812 298.785156 382.816406 298.898438 382.929688 C 299.011719 383.042969 299.070312 383.183594 299.070312 383.34375 Z M 299.070312 383.34375 " fill-opacity="1" fill-rule="nonzero"/><path fill="#000000" d="M 289.570312 383.34375 C 289.570312 383.507812 289.515625 383.644531 289.398438 383.761719 C 289.285156 383.875 289.144531 383.933594 288.984375 383.933594 C 288.820312 383.933594 288.679688 383.875 288.566406 383.761719 C 288.453125 383.644531 288.394531 383.507812 288.394531 383.34375 C 288.394531 383.183594 288.453125 383.042969 288.566406 382.929688 C 288.679688 382.816406 288.820312 382.757812 288.984375 382.757812 C 289.144531 382.757812 289.285156 382.816406 289.398438 382.929688 C 289.515625 383.042969 289.570312 383.183594 289.570312 383.34375 Z M 289.570312 383.34375 " fill-opacity="1" fill-rule="nonzero"/><path fill="#000000" d="M 280.078125 383.34375 C 280.078125 383.507812 280.019531 383.644531 279.90625 383.761719 C 279.789062 383.875 279.652344 383.933594 279.488281 383.933594 C 279.324219 383.933594 279.1875 383.875 279.070312 383.761719 C 278.957031 383.644531 278.898438 383.507812 278.898438 383.34375 C 278.898438 383.183594 278.957031 383.042969 279.070312 382.929688 C 279.1875 382.816406 279.324219 382.757812 279.488281 382.757812 C 279.652344 382.757812 279.789062 382.816406 279.90625 382.929688 C 280.019531 383.042969 280.078125 383.183594 280.078125 383.34375 Z M 280.078125 383.34375 " fill-opacity="1" fill-rule="nonzero"/><path fill="#000000" d="M 270.578125 383.34375 C 270.578125 383.507812 270.519531 383.644531 270.40625 383.761719 C 270.289062 383.875 270.152344 383.933594 269.988281 383.933594 C 269.828125 383.933594 269.6875 383.875 269.574219 383.761719 C 269.457031 383.644531 269.398438 383.507812 269.398438 383.34375 C 269.398438 383.183594 269.457031 383.042969 269.574219 382.929688 C 269.6875 382.816406 269.828125 382.757812 269.988281 382.757812 C 270.152344 382.757812 270.289062 382.816406 270.40625 382.929688 C 270.519531 383.042969 270.578125 383.183594 270.578125 383.34375 Z M 270.578125 383.34375 " fill-opacity="1" fill-rule="nonzero"/><path fill="#000000" d="M 261.078125 383.34375 C 261.078125 383.507812 261.019531 383.644531 260.90625 383.761719 C 260.789062 383.875 260.652344 383.933594 260.488281 383.933594 C 260.328125 383.933594 260.1875 383.875 260.074219 383.761719 C 259.957031 383.644531 259.902344 383.507812 259.902344 383.34375 C 259.902344 383.183594 259.957031 383.042969 260.074219 382.929688 C 260.1875 382.816406 260.328125 382.757812 260.488281 382.757812 C 260.652344 382.757812 260.789062 382.816406 260.90625 382.929688 C 261.019531 383.042969 261.078125 383.183594 261.078125 383.34375 Z M 261.078125 383.34375 " fill-opacity="1" fill-rule="nonzero"/><path fill="#000000" d="M 337.058594 373.859375 C 337.058594 374.019531 337 374.160156 336.886719 374.273438 C 336.769531 374.390625 336.632812 374.445312 336.46875 374.445312 C 336.304688 374.445312 336.167969 374.390625 336.054688 374.273438 C 335.9375 374.160156 335.878906 374.019531 335.878906 373.859375 C 335.878906 373.695312 335.9375 373.558594 336.054688 373.441406 C 336.167969 373.328125 336.304688 373.269531 336.46875 373.269531 C 336.632812 373.269531 336.769531 373.328125 336.886719 373.441406 C 337 373.558594 337.058594 373.695312 337.058594 373.859375 Z M 337.058594 373.859375 " fill-opacity="1" fill-rule="nonzero"/><path fill="#000000" d="M 327.5625 373.859375 C 327.5625 374.019531 327.507812 374.160156 327.390625 374.273438 C 327.277344 374.390625 327.136719 374.445312 326.976562 374.445312 C 326.8125 374.445312 326.671875 374.390625 326.558594 374.273438 C 326.445312 374.160156 326.386719 374.019531 326.386719 373.859375 C 326.386719 373.695312 326.445312 373.558594 326.558594 373.441406 C 326.671875 373.328125 326.8125 373.269531 326.976562 373.269531 C 327.136719 373.269531 327.277344 373.328125 327.390625 373.441406 C 327.507812 373.558594 327.5625 373.695312 327.5625 373.859375 Z M 327.5625 373.859375 " fill-opacity="1" fill-rule="nonzero"/><path fill="#000000" d="M 318.0625 373.859375 C 318.0625 374.019531 318.007812 374.160156 317.890625 374.273438 C 317.777344 374.390625 317.636719 374.445312 317.476562 374.445312 C 317.3125 374.445312 317.175781 374.390625 317.058594 374.273438 C 316.945312 374.160156 316.886719 374.019531 316.886719 373.859375 C 316.886719 373.695312 316.945312 373.558594 317.058594 373.441406 C 317.175781 373.328125 317.3125 373.269531 317.476562 373.269531 C 317.636719 373.269531 317.777344 373.328125 317.890625 373.441406 C 318.007812 373.558594 318.0625 373.695312 318.0625 373.859375 Z M 318.0625 373.859375 " fill-opacity="1" fill-rule="nonzero"/><path fill="#000000" d="M 308.570312 373.859375 C 308.570312 374.019531 308.511719 374.160156 308.398438 374.273438 C 308.28125 374.390625 308.144531 374.445312 307.980469 374.445312 C 307.820312 374.445312 307.679688 374.390625 307.566406 374.273438 C 307.449219 374.160156 307.394531 374.019531 307.394531 373.859375 C 307.394531 373.695312 307.449219 373.558594 307.566406 373.441406 C 307.679688 373.328125 307.820312 373.269531 307.980469 373.269531 C 308.144531 373.269531 308.28125 373.328125 308.398438 373.441406 C 308.511719 373.558594 308.570312 373.695312 308.570312 373.859375 Z M 308.570312 373.859375 " fill-opacity="1" fill-rule="nonzero"/><path fill="#000000" d="M 299.070312 373.859375 C 299.070312 374.019531 299.011719 374.160156 298.898438 374.273438 C 298.785156 374.390625 298.644531 374.445312 298.480469 374.445312 C 298.320312 374.445312 298.179688 374.390625 298.066406 374.273438 C 297.949219 374.160156 297.894531 374.019531 297.894531 373.859375 C 297.894531 373.695312 297.949219 373.558594 298.066406 373.441406 C 298.179688 373.328125 298.320312 373.269531 298.480469 373.269531 C 298.644531 373.269531 298.785156 373.328125 298.898438 373.441406 C 299.011719 373.558594 299.070312 373.695312 299.070312 373.859375 Z M 299.070312 373.859375 " fill-opacity="1" fill-rule="nonzero"/><path fill="#000000" d="M 289.570312 373.859375 C 289.570312 374.019531 289.515625 374.160156 289.398438 374.273438 C 289.285156 374.390625 289.144531 374.445312 288.984375 374.445312 C 288.820312 374.445312 288.679688 374.390625 288.566406 374.273438 C 288.453125 374.160156 288.394531 374.019531 288.394531 373.859375 C 288.394531 373.695312 288.453125 373.558594 288.566406 373.441406 C 288.679688 373.328125 288.820312 373.269531 288.984375 373.269531 C 289.144531 373.269531 289.285156 373.328125 289.398438 373.441406 C 289.515625 373.558594 289.570312 373.695312 289.570312 373.859375 Z M 289.570312 373.859375 " fill-opacity="1" fill-rule="nonzero"/><path fill="#000000" d="M 280.078125 373.859375 C 280.078125 374.019531 280.019531 374.160156 279.90625 374.273438 C 279.789062 374.390625 279.652344 374.445312 279.488281 374.445312 C 279.324219 374.445312 279.1875 374.390625 279.070312 374.273438 C 278.957031 374.160156 278.898438 374.019531 278.898438 373.859375 C 278.898438 373.695312 278.957031 373.558594 279.070312 373.441406 C 279.1875 373.328125 279.324219 373.269531 279.488281 373.269531 C 279.652344 373.269531 279.789062 373.328125 279.90625 373.441406 C 280.019531 373.558594 280.078125 373.695312 280.078125 373.859375 Z M 280.078125 373.859375 " fill-opacity="1" fill-rule="nonzero"/><path fill="#000000" d="M 270.578125 373.859375 C 270.578125 374.019531 270.519531 374.160156 270.40625 374.273438 C 270.289062 374.390625 270.152344 374.445312 269.988281 374.445312 C 269.828125 374.445312 269.6875 374.390625 269.574219 374.273438 C 269.457031 374.160156 269.398438 374.019531 269.398438 373.859375 C 269.398438 373.695312 269.457031 373.558594 269.574219 373.441406 C 269.6875 373.328125 269.828125 373.269531 269.988281 373.269531 C 270.152344 373.269531 270.289062 373.328125 270.40625 373.441406 C 270.519531 373.558594 270.578125 373.695312 270.578125 373.859375 Z M 270.578125 373.859375 " fill-opacity="1" fill-rule="nonzero"/><path fill="#000000" d="M 261.078125 373.859375 C 261.078125 374.019531 261.019531 374.160156 260.90625 374.273438 C 260.789062 374.390625 260.652344 374.445312 260.488281 374.445312 C 260.328125 374.445312 260.1875 374.390625 260.074219 374.273438 C 259.957031 374.160156 259.902344 374.019531 259.902344 373.859375 C 259.902344 373.695312 259.957031 373.558594 260.074219 373.441406 C 260.1875 373.328125 260.328125 373.269531 260.488281 373.269531 C 260.652344 373.269531 260.789062 373.328125 260.90625 373.441406 C 261.019531 373.558594 261.078125 373.695312 261.078125 373.859375 Z M 261.078125 373.859375 " fill-opacity="1" fill-rule="nonzero"/><path fill="#000000" d="M 337.058594 364.371094 C 337.058594 364.535156 337 364.671875 336.886719 364.785156 C 336.769531 364.902344 336.632812 364.957031 336.46875 364.957031 C 336.304688 364.957031 336.167969 364.902344 336.054688 364.785156 C 335.9375 364.671875 335.878906 364.535156 335.878906 364.371094 C 335.878906 364.207031 335.9375 364.070312 336.054688 363.957031 C 336.167969 363.839844 336.304688 363.78125 336.46875 363.78125 C 336.632812 363.78125 336.769531 363.839844 336.886719 363.957031 C 337 364.070312 337.058594 364.207031 337.058594 364.371094 Z M 337.058594 364.371094 " fill-opacity="1" fill-rule="nonzero"/><path fill="#000000" d="M 327.5625 364.371094 C 327.5625 364.535156 327.507812 364.671875 327.390625 364.785156 C 327.277344 364.902344 327.136719 364.957031 326.976562 364.957031 C 326.8125 364.957031 326.671875 364.902344 326.558594 364.785156 C 326.445312 364.671875 326.386719 364.535156 326.386719 364.371094 C 326.386719 364.207031 326.445312 364.070312 326.558594 363.957031 C 326.671875 363.839844 326.8125 363.78125 326.976562 363.78125 C 327.136719 363.78125 327.277344 363.839844 327.390625 363.957031 C 327.507812 364.070312 327.5625 364.207031 327.5625 364.371094 Z M 327.5625 364.371094 " fill-opacity="1" fill-rule="nonzero"/><path fill="#000000" d="M 318.0625 364.371094 C 318.0625 364.535156 318.007812 364.671875 317.890625 364.785156 C 317.777344 364.902344 317.636719 364.957031 317.476562 364.957031 C 317.3125 364.957031 317.175781 364.902344 317.058594 364.785156 C 316.945312 364.671875 316.886719 364.535156 316.886719 364.371094 C 316.886719 364.207031 316.945312 364.070312 317.058594 363.957031 C 317.175781 363.839844 317.3125 363.78125 317.476562 363.78125 C 317.636719 363.78125 317.777344 363.839844 317.890625 363.957031 C 318.007812 364.070312 318.0625 364.207031 318.0625 364.371094 Z M 318.0625 364.371094 " fill-opacity="1" fill-rule="nonzero"/><path fill="#000000" d="M 308.570312 364.371094 C 308.570312 364.535156 308.511719 364.671875 308.398438 364.785156 C 308.28125 364.902344 308.144531 364.957031 307.980469 364.957031 C 307.820312 364.957031 307.679688 364.902344 307.566406 364.785156 C 307.449219 364.671875 307.394531 364.535156 307.394531 364.371094 C 307.394531 364.207031 307.449219 364.070312 307.566406 363.957031 C 307.679688 363.839844 307.820312 363.78125 307.980469 363.78125 C 308.144531 363.78125 308.28125 363.839844 308.398438 363.957031 C 308.511719 364.070312 308.570312 364.207031 308.570312 364.371094 Z M 308.570312 364.371094 " fill-opacity="1" fill-rule="nonzero"/><path fill="#000000" d="M 299.070312 364.371094 C 299.070312 364.535156 299.011719 364.671875 298.898438 364.785156 C 298.785156 364.902344 298.644531 364.957031 298.480469 364.957031 C 298.320312 364.957031 298.179688 364.902344 298.066406 364.785156 C 297.949219 364.671875 297.894531 364.535156 297.894531 364.371094 C 297.894531 364.207031 297.949219 364.070312 298.066406 363.957031 C 298.179688 363.839844 298.320312 363.78125 298.480469 363.78125 C 298.644531 363.78125 298.785156 363.839844 298.898438 363.957031 C 299.011719 364.070312 299.070312 364.207031 299.070312 364.371094 Z M 299.070312 364.371094 " fill-opacity="1" fill-rule="nonzero"/><path fill="#000000" d="M 289.570312 364.371094 C 289.570312 364.535156 289.515625 364.671875 289.398438 364.785156 C 289.285156 364.902344 289.144531 364.957031 288.984375 364.957031 C 288.820312 364.957031 288.679688 364.902344 288.566406 364.785156 C 288.453125 364.671875 288.394531 364.535156 288.394531 364.371094 C 288.394531 364.207031 288.453125 364.070312 288.566406 363.957031 C 288.679688 363.839844 288.820312 363.78125 288.984375 363.78125 C 289.144531 363.78125 289.285156 363.839844 289.398438 363.957031 C 289.515625 364.070312 289.570312 364.207031 289.570312 364.371094 Z M 289.570312 364.371094 " fill-opacity="1" fill-rule="nonzero"/><path fill="#000000" d="M 280.078125 364.371094 C 280.078125 364.535156 280.019531 364.671875 279.90625 364.785156 C 279.789062 364.902344 279.652344 364.957031 279.488281 364.957031 C 279.324219 364.957031 279.1875 364.902344 279.070312 364.785156 C 278.957031 364.671875 278.898438 364.535156 278.898438 364.371094 C 278.898438 364.207031 278.957031 364.070312 279.070312 363.957031 C 279.1875 363.839844 279.324219 363.78125 279.488281 363.78125 C 279.652344 363.78125 279.789062 363.839844 279.90625 363.957031 C 280.019531 364.070312 280.078125 364.207031 280.078125 364.371094 Z M 280.078125 364.371094 " fill-opacity="1" fill-rule="nonzero"/><path fill="#000000" d="M 270.578125 364.371094 C 270.578125 364.535156 270.519531 364.671875 270.40625 364.785156 C 270.289062 364.902344 270.152344 364.957031 269.988281 364.957031 C 269.828125 364.957031 269.6875 364.902344 269.574219 364.785156 C 269.457031 364.671875 269.398438 364.535156 269.398438 364.371094 C 269.398438 364.207031 269.457031 364.070312 269.574219 363.957031 C 269.6875 363.839844 269.828125 363.78125 269.988281 363.78125 C 270.152344 363.78125 270.289062 363.839844 270.40625 363.957031 C 270.519531 364.070312 270.578125 364.207031 270.578125 364.371094 Z M 270.578125 364.371094 " fill-opacity="1" fill-rule="nonzero"/><path fill="#000000" d="M 261.078125 364.371094 C 261.078125 364.535156 261.019531 364.671875 260.90625 364.785156 C 260.789062 364.902344 260.652344 364.957031 260.488281 364.957031 C 260.328125 364.957031 260.1875 364.902344 260.074219 364.785156 C 259.957031 364.671875 259.902344 364.535156 259.902344 364.371094 C 259.902344 364.207031 259.957031 364.070312 260.074219 363.957031 C 260.1875 363.839844 260.328125 363.78125 260.488281 363.78125 C 260.652344 363.78125 260.789062 363.839844 260.90625 363.957031 C 261.019531 364.070312 261.078125 364.207031 261.078125 364.371094 Z M 261.078125 364.371094 " fill-opacity="1" fill-rule="nonzero"/><path fill="#000000" d="M 337.058594 354.890625 C 337.058594 355.050781 337 355.191406 336.886719 355.304688 C 336.769531 355.417969 336.632812 355.476562 336.46875 355.476562 C 336.304688 355.476562 336.167969 355.417969 336.054688 355.304688 C 335.9375 355.191406 335.878906 355.050781 335.878906 354.890625 C 335.878906 354.726562 335.9375 354.589844 336.054688 354.472656 C 336.167969 354.359375 336.304688 354.300781 336.46875 354.300781 C 336.632812 354.300781 336.769531 354.359375 336.886719 354.472656 C 337 354.589844 337.058594 354.726562 337.058594 354.890625 Z M 337.058594 354.890625 " fill-opacity="1" fill-rule="nonzero"/><path fill="#000000" d="M 327.5625 354.890625 C 327.5625 355.050781 327.507812 355.191406 327.390625 355.304688 C 327.277344 355.417969 327.136719 355.476562 326.976562 355.476562 C 326.8125 355.476562 326.671875 355.417969 326.558594 355.304688 C 326.445312 355.191406 326.386719 355.050781 326.386719 354.890625 C 326.386719 354.726562 326.445312 354.589844 326.558594 354.472656 C 326.671875 354.359375 326.8125 354.300781 326.976562 354.300781 C 327.136719 354.300781 327.277344 354.359375 327.390625 354.472656 C 327.507812 354.589844 327.5625 354.726562 327.5625 354.890625 Z M 327.5625 354.890625 " fill-opacity="1" fill-rule="nonzero"/><path fill="#000000" d="M 318.0625 354.890625 C 318.0625 355.050781 318.007812 355.191406 317.890625 355.304688 C 317.777344 355.417969 317.636719 355.476562 317.476562 355.476562 C 317.3125 355.476562 317.175781 355.417969 317.058594 355.304688 C 316.945312 355.191406 316.886719 355.050781 316.886719 354.890625 C 316.886719 354.726562 316.945312 354.589844 317.058594 354.472656 C 317.175781 354.359375 317.3125 354.300781 317.476562 354.300781 C 317.636719 354.300781 317.777344 354.359375 317.890625 354.472656 C 318.007812 354.589844 318.0625 354.726562 318.0625 354.890625 Z M 318.0625 354.890625 " fill-opacity="1" fill-rule="nonzero"/><path fill="#000000" d="M 308.570312 354.890625 C 308.570312 355.050781 308.511719 355.191406 308.398438 355.304688 C 308.28125 355.417969 308.144531 355.476562 307.980469 355.476562 C 307.820312 355.476562 307.679688 355.417969 307.566406 355.304688 C 307.449219 355.191406 307.394531 355.050781 307.394531 354.890625 C 307.394531 354.726562 307.449219 354.589844 307.566406 354.472656 C 307.679688 354.359375 307.820312 354.300781 307.980469 354.300781 C 308.144531 354.300781 308.28125 354.359375 308.398438 354.472656 C 308.511719 354.589844 308.570312 354.726562 308.570312 354.890625 Z M 308.570312 354.890625 " fill-opacity="1" fill-rule="nonzero"/><path fill="#000000" d="M 299.070312 354.890625 C 299.070312 355.050781 299.011719 355.191406 298.898438 355.304688 C 298.785156 355.417969 298.644531 355.476562 298.480469 355.476562 C 298.320312 355.476562 298.179688 355.417969 298.066406 355.304688 C 297.949219 355.191406 297.894531 355.050781 297.894531 354.890625 C 297.894531 354.726562 297.949219 354.589844 298.066406 354.472656 C 298.179688 354.359375 298.320312 354.300781 298.480469 354.300781 C 298.644531 354.300781 298.785156 354.359375 298.898438 354.472656 C 299.011719 354.589844 299.070312 354.726562 299.070312 354.890625 Z M 299.070312 354.890625 " fill-opacity="1" fill-rule="nonzero"/><path fill="#000000" d="M 289.570312 354.890625 C 289.570312 355.050781 289.515625 355.191406 289.398438 355.304688 C 289.285156 355.417969 289.144531 355.476562 288.984375 355.476562 C 288.820312 355.476562 288.679688 355.417969 288.566406 355.304688 C 288.453125 355.191406 288.394531 355.050781 288.394531 354.890625 C 288.394531 354.726562 288.453125 354.589844 288.566406 354.472656 C 288.679688 354.359375 288.820312 354.300781 288.984375 354.300781 C 289.144531 354.300781 289.285156 354.359375 289.398438 354.472656 C 289.515625 354.589844 289.570312 354.726562 289.570312 354.890625 Z M 289.570312 354.890625 " fill-opacity="1" fill-rule="nonzero"/><path fill="#000000" d="M 280.078125 354.890625 C 280.078125 355.050781 280.019531 355.191406 279.90625 355.304688 C 279.789062 355.417969 279.652344 355.476562 279.488281 355.476562 C 279.324219 355.476562 279.1875 355.417969 279.070312 355.304688 C 278.957031 355.191406 278.898438 355.050781 278.898438 354.890625 C 278.898438 354.726562 278.957031 354.589844 279.070312 354.472656 C 279.1875 354.359375 279.324219 354.300781 279.488281 354.300781 C 279.652344 354.300781 279.789062 354.359375 279.90625 354.472656 C 280.019531 354.589844 280.078125 354.726562 280.078125 354.890625 Z M 280.078125 354.890625 " fill-opacity="1" fill-rule="nonzero"/><path fill="#000000" d="M 270.578125 354.890625 C 270.578125 355.050781 270.519531 355.191406 270.40625 355.304688 C 270.289062 355.417969 270.152344 355.476562 269.988281 355.476562 C 269.828125 355.476562 269.6875 355.417969 269.574219 355.304688 C 269.457031 355.191406 269.398438 355.050781 269.398438 354.890625 C 269.398438 354.726562 269.457031 354.589844 269.574219 354.472656 C 269.6875 354.359375 269.828125 354.300781 269.988281 354.300781 C 270.152344 354.300781 270.289062 354.359375 270.40625 354.472656 C 270.519531 354.589844 270.578125 354.726562 270.578125 354.890625 Z M 270.578125 354.890625 " fill-opacity="1" fill-rule="nonzero"/><path fill="#000000" d="M 261.078125 354.890625 C 261.078125 355.050781 261.019531 355.191406 260.90625 355.304688 C 260.789062 355.417969 260.652344 355.476562 260.488281 355.476562 C 260.328125 355.476562 260.1875 355.417969 260.074219 355.304688 C 259.957031 355.191406 259.902344 355.050781 259.902344 354.890625 C 259.902344 354.726562 259.957031 354.589844 260.074219 354.472656 C 260.1875 354.359375 260.328125 354.300781 260.488281 354.300781 C 260.652344 354.300781 260.789062 354.359375 260.90625 354.472656 C 261.019531 354.589844 261.078125 354.726562 261.078125 354.890625 Z M 261.078125 354.890625 " fill-opacity="1" fill-rule="nonzero"/><path fill="#000000" d="M 337.058594 345.402344 C 337.058594 345.5625 337 345.703125 336.886719 345.816406 C 336.769531 345.933594 336.632812 345.988281 336.46875 345.988281 C 336.304688 345.988281 336.167969 345.933594 336.054688 345.816406 C 335.9375 345.703125 335.878906 345.5625 335.878906 345.402344 C 335.878906 345.238281 335.9375 345.101562 336.054688 344.984375 C 336.167969 344.871094 336.304688 344.8125 336.46875 344.8125 C 336.632812 344.8125 336.769531 344.871094 336.886719 344.984375 C 337 345.101562 337.058594 345.238281 337.058594 345.402344 Z M 337.058594 345.402344 " fill-opacity="1" fill-rule="nonzero"/><path fill="#000000" d="M 327.5625 345.402344 C 327.5625 345.5625 327.507812 345.703125 327.390625 345.816406 C 327.277344 345.933594 327.136719 345.988281 326.976562 345.988281 C 326.8125 345.988281 326.671875 345.933594 326.558594 345.816406 C 326.445312 345.703125 326.386719 345.5625 326.386719 345.402344 C 326.386719 345.238281 326.445312 345.101562 326.558594 344.984375 C 326.671875 344.871094 326.8125 344.8125 326.976562 344.8125 C 327.136719 344.8125 327.277344 344.871094 327.390625 344.984375 C 327.507812 345.101562 327.5625 345.238281 327.5625 345.402344 Z M 327.5625 345.402344 " fill-opacity="1" fill-rule="nonzero"/><path fill="#000000" d="M 318.0625 345.402344 C 318.0625 345.5625 318.007812 345.703125 317.890625 345.816406 C 317.777344 345.933594 317.636719 345.988281 317.476562 345.988281 C 317.3125 345.988281 317.175781 345.933594 317.058594 345.816406 C 316.945312 345.703125 316.886719 345.5625 316.886719 345.402344 C 316.886719 345.238281 316.945312 345.101562 317.058594 344.984375 C 317.175781 344.871094 317.3125 344.8125 317.476562 344.8125 C 317.636719 344.8125 317.777344 344.871094 317.890625 344.984375 C 318.007812 345.101562 318.0625 345.238281 318.0625 345.402344 Z M 318.0625 345.402344 " fill-opacity="1" fill-rule="nonzero"/><path fill="#000000" d="M 308.570312 345.402344 C 308.570312 345.5625 308.511719 345.703125 308.398438 345.816406 C 308.28125 345.933594 308.144531 345.988281 307.980469 345.988281 C 307.820312 345.988281 307.679688 345.933594 307.566406 345.816406 C 307.449219 345.703125 307.394531 345.5625 307.394531 345.402344 C 307.394531 345.238281 307.449219 345.101562 307.566406 344.984375 C 307.679688 344.871094 307.820312 344.8125 307.980469 344.8125 C 308.144531 344.8125 308.28125 344.871094 308.398438 344.984375 C 308.511719 345.101562 308.570312 345.238281 308.570312 345.402344 Z M 308.570312 345.402344 " fill-opacity="1" fill-rule="nonzero"/><path fill="#000000" d="M 299.070312 345.402344 C 299.070312 345.5625 299.011719 345.703125 298.898438 345.816406 C 298.785156 345.933594 298.644531 345.988281 298.480469 345.988281 C 298.320312 345.988281 298.179688 345.933594 298.066406 345.816406 C 297.949219 345.703125 297.894531 345.5625 297.894531 345.402344 C 297.894531 345.238281 297.949219 345.101562 298.066406 344.984375 C 298.179688 344.871094 298.320312 344.8125 298.480469 344.8125 C 298.644531 344.8125 298.785156 344.871094 298.898438 344.984375 C 299.011719 345.101562 299.070312 345.238281 299.070312 345.402344 Z M 299.070312 345.402344 " fill-opacity="1" fill-rule="nonzero"/><path fill="#000000" d="M 289.570312 345.402344 C 289.570312 345.5625 289.515625 345.703125 289.398438 345.816406 C 289.285156 345.933594 289.144531 345.988281 288.984375 345.988281 C 288.820312 345.988281 288.679688 345.933594 288.566406 345.816406 C 288.453125 345.703125 288.394531 345.5625 288.394531 345.402344 C 288.394531 345.238281 288.453125 345.101562 288.566406 344.984375 C 288.679688 344.871094 288.820312 344.8125 288.984375 344.8125 C 289.144531 344.8125 289.285156 344.871094 289.398438 344.984375 C 289.515625 345.101562 289.570312 345.238281 289.570312 345.402344 Z M 289.570312 345.402344 " fill-opacity="1" fill-rule="nonzero"/><path fill="#000000" d="M 280.078125 345.402344 C 280.078125 345.5625 280.019531 345.703125 279.90625 345.816406 C 279.789062 345.933594 279.652344 345.988281 279.488281 345.988281 C 279.324219 345.988281 279.1875 345.933594 279.070312 345.816406 C 278.957031 345.703125 278.898438 345.5625 278.898438 345.402344 C 278.898438 345.238281 278.957031 345.101562 279.070312 344.984375 C 279.1875 344.871094 279.324219 344.8125 279.488281 344.8125 C 279.652344 344.8125 279.789062 344.871094 279.90625 344.984375 C 280.019531 345.101562 280.078125 345.238281 280.078125 345.402344 Z M 280.078125 345.402344 " fill-opacity="1" fill-rule="nonzero"/><path fill="#000000" d="M 270.578125 345.402344 C 270.578125 345.5625 270.519531 345.703125 270.40625 345.816406 C 270.289062 345.933594 270.152344 345.988281 269.988281 345.988281 C 269.828125 345.988281 269.6875 345.933594 269.574219 345.816406 C 269.457031 345.703125 269.398438 345.5625 269.398438 345.402344 C 269.398438 345.238281 269.457031 345.101562 269.574219 344.984375 C 269.6875 344.871094 269.828125 344.8125 269.988281 344.8125 C 270.152344 344.8125 270.289062 344.871094 270.40625 344.984375 C 270.519531 345.101562 270.578125 345.238281 270.578125 345.402344 Z M 270.578125 345.402344 " fill-opacity="1" fill-rule="nonzero"/><path fill="#000000" d="M 261.078125 345.402344 C 261.078125 345.5625 261.019531 345.703125 260.90625 345.816406 C 260.789062 345.933594 260.652344 345.988281 260.488281 345.988281 C 260.328125 345.988281 260.1875 345.933594 260.074219 345.816406 C 259.957031 345.703125 259.902344 345.5625 259.902344 345.402344 C 259.902344 345.238281 259.957031 345.101562 260.074219 344.984375 C 260.1875 344.871094 260.328125 344.8125 260.488281 344.8125 C 260.652344 344.8125 260.789062 344.871094 260.90625 344.984375 C 261.019531 345.101562 261.078125 345.238281 261.078125 345.402344 Z M 261.078125 345.402344 " fill-opacity="1" fill-rule="nonzero"/><path fill="#000000" d="M 384.371094 335.042969 C 384.371094 335.207031 384.3125 335.34375 384.199219 335.457031 C 384.082031 335.574219 383.945312 335.632812 383.78125 335.632812 C 383.621094 335.632812 383.480469 335.574219 383.367188 335.457031 C 383.25 335.34375 383.195312 335.207031 383.195312 335.042969 C 383.195312 334.878906 383.25 334.742188 383.367188 334.628906 C 383.480469 334.511719 383.621094 334.453125 383.78125 334.453125 C 383.945312 334.453125 384.082031 334.511719 384.199219 334.628906 C 384.3125 334.742188 384.371094 334.878906 384.371094 335.042969 Z M 384.371094 335.042969 " fill-opacity="1" fill-rule="nonzero"/><path fill="#000000" d="M 374.875 335.042969 C 374.875 335.207031 374.820312 335.34375 374.703125 335.457031 C 374.589844 335.574219 374.449219 335.632812 374.289062 335.632812 C 374.125 335.632812 373.988281 335.574219 373.871094 335.457031 C 373.757812 335.34375 373.699219 335.207031 373.699219 335.042969 C 373.699219 334.878906 373.757812 334.742188 373.871094 334.628906 C 373.988281 334.511719 374.125 334.453125 374.289062 334.453125 C 374.449219 334.453125 374.589844 334.511719 374.703125 334.628906 C 374.820312 334.742188 374.875 334.878906 374.875 335.042969 Z M 374.875 335.042969 " fill-opacity="1" fill-rule="nonzero"/><path fill="#000000" d="M 365.378906 335.042969 C 365.378906 335.207031 365.320312 335.34375 365.203125 335.457031 C 365.089844 335.574219 364.953125 335.632812 364.789062 335.632812 C 364.625 335.632812 364.488281 335.574219 364.371094 335.457031 C 364.257812 335.34375 364.199219 335.207031 364.199219 335.042969 C 364.199219 334.878906 364.257812 334.742188 364.371094 334.628906 C 364.488281 334.511719 364.625 334.453125 364.789062 334.453125 C 364.953125 334.453125 365.089844 334.511719 365.203125 334.628906 C 365.320312 334.742188 365.378906 334.878906 365.378906 335.042969 Z M 365.378906 335.042969 " fill-opacity="1" fill-rule="nonzero"/><path fill="#000000" d="M 355.882812 335.042969 C 355.882812 335.207031 355.824219 335.34375 355.710938 335.457031 C 355.597656 335.574219 355.457031 335.632812 355.292969 335.632812 C 355.132812 335.632812 354.992188 335.574219 354.878906 335.457031 C 354.761719 335.34375 354.707031 335.207031 354.707031 335.042969 C 354.707031 334.878906 354.761719 334.742188 354.878906 334.628906 C 354.992188 334.511719 355.132812 334.453125 355.292969 334.453125 C 355.457031 334.453125 355.597656 334.511719 355.710938 334.628906 C 355.824219 334.742188 355.882812 334.878906 355.882812 335.042969 Z M 355.882812 335.042969 " fill-opacity="1" fill-rule="nonzero"/><path fill="#000000" d="M 346.382812 335.042969 C 346.382812 335.207031 346.328125 335.34375 346.210938 335.457031 C 346.097656 335.574219 345.957031 335.632812 345.796875 335.632812 C 345.632812 335.632812 345.492188 335.574219 345.378906 335.457031 C 345.265625 335.34375 345.207031 335.207031 345.207031 335.042969 C 345.207031 334.878906 345.265625 334.742188 345.378906 334.628906 C 345.492188 334.511719 345.632812 334.453125 345.796875 334.453125 C 345.957031 334.453125 346.097656 334.511719 346.210938 334.628906 C 346.328125 334.742188 346.382812 334.878906 346.382812 335.042969 Z M 346.382812 335.042969 " fill-opacity="1" fill-rule="nonzero"/><path fill="#000000" d="M 336.882812 335.042969 C 336.882812 335.207031 336.828125 335.34375 336.710938 335.457031 C 336.597656 335.574219 336.457031 335.632812 336.296875 335.632812 C 336.132812 335.632812 335.996094 335.574219 335.878906 335.457031 C 335.765625 335.34375 335.707031 335.207031 335.707031 335.042969 C 335.707031 334.878906 335.765625 334.742188 335.878906 334.628906 C 335.996094 334.511719 336.132812 334.453125 336.296875 334.453125 C 336.457031 334.453125 336.597656 334.511719 336.710938 334.628906 C 336.828125 334.742188 336.882812 334.878906 336.882812 335.042969 Z M 336.882812 335.042969 " fill-opacity="1" fill-rule="nonzero"/><path fill="#000000" d="M 327.390625 335.042969 C 327.390625 335.207031 327.332031 335.34375 327.21875 335.457031 C 327.101562 335.574219 326.964844 335.632812 326.800781 335.632812 C 326.640625 335.632812 326.5 335.574219 326.386719 335.457031 C 326.269531 335.34375 326.210938 335.207031 326.210938 335.042969 C 326.210938 334.878906 326.269531 334.742188 326.386719 334.628906 C 326.5 334.511719 326.640625 334.453125 326.800781 334.453125 C 326.964844 334.453125 327.101562 334.511719 327.21875 334.628906 C 327.332031 334.742188 327.390625 334.878906 327.390625 335.042969 Z M 327.390625 335.042969 " fill-opacity="1" fill-rule="nonzero"/><path fill="#000000" d="M 317.890625 335.042969 C 317.890625 335.207031 317.832031 335.34375 317.71875 335.457031 C 317.601562 335.574219 317.464844 335.632812 317.300781 335.632812 C 317.140625 335.632812 317 335.574219 316.886719 335.457031 C 316.769531 335.34375 316.714844 335.207031 316.714844 335.042969 C 316.714844 334.878906 316.769531 334.742188 316.886719 334.628906 C 317 334.511719 317.140625 334.453125 317.300781 334.453125 C 317.464844 334.453125 317.601562 334.511719 317.71875 334.628906 C 317.832031 334.742188 317.890625 334.878906 317.890625 335.042969 Z M 317.890625 335.042969 " fill-opacity="1" fill-rule="nonzero"/><path fill="#000000" d="M 308.390625 335.042969 C 308.390625 335.207031 308.335938 335.34375 308.21875 335.457031 C 308.105469 335.574219 307.964844 335.632812 307.800781 335.632812 C 307.640625 335.632812 307.5 335.574219 307.386719 335.457031 C 307.269531 335.34375 307.214844 335.207031 307.214844 335.042969 C 307.214844 334.878906 307.269531 334.742188 307.386719 334.628906 C 307.5 334.511719 307.640625 334.453125 307.800781 334.453125 C 307.964844 334.453125 308.105469 334.511719 308.21875 334.628906 C 308.332031 334.742188 308.390625 334.878906 308.390625 335.042969 Z M 308.390625 335.042969 " fill-opacity="1" fill-rule="nonzero"/><path fill="#000000" d="M 384.371094 325.554688 C 384.371094 325.71875 384.3125 325.855469 384.199219 325.972656 C 384.082031 326.085938 383.945312 326.144531 383.78125 326.144531 C 383.621094 326.144531 383.480469 326.085938 383.367188 325.972656 C 383.25 325.855469 383.195312 325.71875 383.195312 325.554688 C 383.195312 325.394531 383.25 325.253906 383.367188 325.140625 C 383.480469 325.023438 383.621094 324.96875 383.78125 324.96875 C 383.945312 324.96875 384.082031 325.023438 384.199219 325.140625 C 384.3125 325.253906 384.371094 325.394531 384.371094 325.554688 Z M 384.371094 325.554688 " fill-opacity="1" fill-rule="nonzero"/><path fill="#000000" d="M 374.875 325.554688 C 374.875 325.71875 374.820312 325.855469 374.703125 325.972656 C 374.589844 326.085938 374.449219 326.144531 374.289062 326.144531 C 374.125 326.144531 373.988281 326.085938 373.871094 325.972656 C 373.757812 325.855469 373.699219 325.71875 373.699219 325.554688 C 373.699219 325.394531 373.757812 325.253906 373.871094 325.140625 C 373.988281 325.023438 374.125 324.96875 374.289062 324.96875 C 374.449219 324.96875 374.589844 325.023438 374.703125 325.140625 C 374.820312 325.253906 374.875 325.394531 374.875 325.554688 Z M 374.875 325.554688 " fill-opacity="1" fill-rule="nonzero"/><path fill="#000000" d="M 365.378906 325.554688 C 365.378906 325.71875 365.320312 325.855469 365.203125 325.972656 C 365.089844 326.085938 364.953125 326.144531 364.789062 326.144531 C 364.625 326.144531 364.488281 326.085938 364.371094 325.972656 C 364.257812 325.855469 364.199219 325.71875 364.199219 325.554688 C 364.199219 325.394531 364.257812 325.253906 364.371094 325.140625 C 364.488281 325.023438 364.625 324.96875 364.789062 324.96875 C 364.953125 324.96875 365.089844 325.023438 365.203125 325.140625 C 365.320312 325.253906 365.378906 325.394531 365.378906 325.554688 Z M 365.378906 325.554688 " fill-opacity="1" fill-rule="nonzero"/><path fill="#000000" d="M 355.882812 325.554688 C 355.882812 325.71875 355.824219 325.855469 355.710938 325.972656 C 355.597656 326.085938 355.457031 326.144531 355.292969 326.144531 C 355.132812 326.144531 354.992188 326.085938 354.878906 325.972656 C 354.761719 325.855469 354.707031 325.71875 354.707031 325.554688 C 354.707031 325.394531 354.761719 325.253906 354.878906 325.140625 C 354.992188 325.023438 355.132812 324.96875 355.292969 324.96875 C 355.457031 324.96875 355.597656 325.023438 355.710938 325.140625 C 355.824219 325.253906 355.882812 325.394531 355.882812 325.554688 Z M 355.882812 325.554688 " fill-opacity="1" fill-rule="nonzero"/><path fill="#000000" d="M 346.382812 325.554688 C 346.382812 325.71875 346.328125 325.855469 346.210938 325.972656 C 346.097656 326.085938 345.957031 326.144531 345.796875 326.144531 C 345.632812 326.144531 345.492188 326.085938 345.378906 325.972656 C 345.265625 325.855469 345.207031 325.71875 345.207031 325.554688 C 345.207031 325.394531 345.265625 325.253906 345.378906 325.140625 C 345.492188 325.023438 345.632812 324.96875 345.796875 324.96875 C 345.957031 324.96875 346.097656 325.023438 346.210938 325.140625 C 346.328125 325.253906 346.382812 325.394531 346.382812 325.554688 Z M 346.382812 325.554688 " fill-opacity="1" fill-rule="nonzero"/><path fill="#000000" d="M 336.882812 325.554688 C 336.882812 325.71875 336.828125 325.855469 336.710938 325.972656 C 336.597656 326.085938 336.457031 326.144531 336.296875 326.144531 C 336.132812 326.144531 335.996094 326.085938 335.878906 325.972656 C 335.765625 325.855469 335.707031 325.71875 335.707031 325.554688 C 335.707031 325.394531 335.765625 325.253906 335.878906 325.140625 C 335.996094 325.023438 336.132812 324.96875 336.296875 324.96875 C 336.457031 324.96875 336.597656 325.023438 336.710938 325.140625 C 336.828125 325.253906 336.882812 325.394531 336.882812 325.554688 Z M 336.882812 325.554688 " fill-opacity="1" fill-rule="nonzero"/><path fill="#000000" d="M 327.390625 325.554688 C 327.390625 325.71875 327.332031 325.855469 327.21875 325.972656 C 327.101562 326.085938 326.964844 326.144531 326.800781 326.144531 C 326.640625 326.144531 326.5 326.085938 326.386719 325.972656 C 326.269531 325.855469 326.210938 325.71875 326.210938 325.554688 C 326.210938 325.394531 326.269531 325.253906 326.386719 325.140625 C 326.5 325.023438 326.640625 324.96875 326.800781 324.96875 C 326.964844 324.96875 327.101562 325.023438 327.21875 325.140625 C 327.332031 325.253906 327.390625 325.394531 327.390625 325.554688 Z M 327.390625 325.554688 " fill-opacity="1" fill-rule="nonzero"/><path fill="#000000" d="M 317.890625 325.554688 C 317.890625 325.71875 317.832031 325.855469 317.71875 325.972656 C 317.601562 326.085938 317.464844 326.144531 317.300781 326.144531 C 317.140625 326.144531 317 326.085938 316.886719 325.972656 C 316.769531 325.855469 316.714844 325.71875 316.714844 325.554688 C 316.714844 325.394531 316.769531 325.253906 316.886719 325.140625 C 317 325.023438 317.140625 324.96875 317.300781 324.96875 C 317.464844 324.96875 317.601562 325.023438 317.71875 325.140625 C 317.832031 325.253906 317.890625 325.394531 317.890625 325.554688 Z M 317.890625 325.554688 " fill-opacity="1" fill-rule="nonzero"/><path fill="#000000" d="M 308.390625 325.554688 C 308.390625 325.71875 308.335938 325.855469 308.21875 325.972656 C 308.105469 326.085938 307.964844 326.144531 307.800781 326.144531 C 307.640625 326.144531 307.5 326.085938 307.386719 325.972656 C 307.269531 325.855469 307.214844 325.71875 307.214844 325.554688 C 307.214844 325.394531 307.269531 325.253906 307.386719 325.140625 C 307.5 325.023438 307.640625 324.96875 307.800781 324.96875 C 307.964844 324.96875 308.105469 325.023438 308.21875 325.140625 C 308.332031 325.253906 308.390625 325.394531 308.390625 325.554688 Z M 308.390625 325.554688 " fill-opacity="1" fill-rule="nonzero"/><path fill="#000000" d="M 384.371094 316.070312 C 384.371094 316.230469 384.3125 316.371094 384.199219 316.484375 C 384.082031 316.597656 383.945312 316.65625 383.78125 316.65625 C 383.621094 316.65625 383.480469 316.597656 383.367188 316.484375 C 383.25 316.371094 383.195312 316.230469 383.195312 316.070312 C 383.195312 315.90625 383.25 315.765625 383.367188 315.652344 C 383.480469 315.539062 383.621094 315.480469 383.78125 315.480469 C 383.945312 315.480469 384.082031 315.539062 384.199219 315.652344 C 384.3125 315.765625 384.371094 315.90625 384.371094 316.070312 Z M 384.371094 316.070312 " fill-opacity="1" fill-rule="nonzero"/><path fill="#000000" d="M 374.875 316.070312 C 374.875 316.230469 374.820312 316.371094 374.703125 316.484375 C 374.589844 316.597656 374.449219 316.65625 374.289062 316.65625 C 374.125 316.65625 373.988281 316.597656 373.871094 316.484375 C 373.757812 316.371094 373.699219 316.230469 373.699219 316.070312 C 373.699219 315.90625 373.757812 315.765625 373.871094 315.652344 C 373.988281 315.539062 374.125 315.480469 374.289062 315.480469 C 374.449219 315.480469 374.589844 315.539062 374.703125 315.652344 C 374.820312 315.765625 374.875 315.90625 374.875 316.070312 Z M 374.875 316.070312 " fill-opacity="1" fill-rule="nonzero"/><path fill="#000000" d="M 365.378906 316.070312 C 365.378906 316.230469 365.320312 316.371094 365.203125 316.484375 C 365.089844 316.597656 364.953125 316.65625 364.789062 316.65625 C 364.625 316.65625 364.488281 316.597656 364.371094 316.484375 C 364.257812 316.371094 364.199219 316.230469 364.199219 316.070312 C 364.199219 315.90625 364.257812 315.765625 364.371094 315.652344 C 364.488281 315.539062 364.625 315.480469 364.789062 315.480469 C 364.953125 315.480469 365.089844 315.539062 365.203125 315.652344 C 365.320312 315.765625 365.378906 315.90625 365.378906 316.070312 Z M 365.378906 316.070312 " fill-opacity="1" fill-rule="nonzero"/><path fill="#000000" d="M 355.882812 316.070312 C 355.882812 316.230469 355.824219 316.371094 355.710938 316.484375 C 355.597656 316.597656 355.457031 316.65625 355.292969 316.65625 C 355.132812 316.65625 354.992188 316.597656 354.878906 316.484375 C 354.761719 316.371094 354.707031 316.230469 354.707031 316.070312 C 354.707031 315.90625 354.761719 315.765625 354.878906 315.652344 C 354.992188 315.539062 355.132812 315.480469 355.292969 315.480469 C 355.457031 315.480469 355.597656 315.539062 355.710938 315.652344 C 355.824219 315.765625 355.882812 315.90625 355.882812 316.070312 Z M 355.882812 316.070312 " fill-opacity="1" fill-rule="nonzero"/><path fill="#000000" d="M 346.382812 316.070312 C 346.382812 316.230469 346.328125 316.371094 346.210938 316.484375 C 346.097656 316.597656 345.957031 316.65625 345.796875 316.65625 C 345.632812 316.65625 345.492188 316.597656 345.378906 316.484375 C 345.265625 316.371094 345.207031 316.230469 345.207031 316.070312 C 345.207031 315.90625 345.265625 315.765625 345.378906 315.652344 C 345.492188 315.539062 345.632812 315.480469 345.796875 315.480469 C 345.957031 315.480469 346.097656 315.539062 346.210938 315.652344 C 346.328125 315.765625 346.382812 315.90625 346.382812 316.070312 Z M 346.382812 316.070312 " fill-opacity="1" fill-rule="nonzero"/><path fill="#000000" d="M 336.882812 316.070312 C 336.882812 316.230469 336.828125 316.371094 336.710938 316.484375 C 336.597656 316.597656 336.457031 316.65625 336.296875 316.65625 C 336.132812 316.65625 335.996094 316.597656 335.878906 316.484375 C 335.765625 316.371094 335.707031 316.230469 335.707031 316.070312 C 335.707031 315.90625 335.765625 315.765625 335.878906 315.652344 C 335.996094 315.539062 336.132812 315.480469 336.296875 315.480469 C 336.457031 315.480469 336.597656 315.539062 336.710938 315.652344 C 336.828125 315.765625 336.882812 315.90625 336.882812 316.070312 Z M 336.882812 316.070312 " fill-opacity="1" fill-rule="nonzero"/><path fill="#000000" d="M 327.390625 316.070312 C 327.390625 316.230469 327.332031 316.371094 327.21875 316.484375 C 327.101562 316.597656 326.964844 316.65625 326.800781 316.65625 C 326.640625 316.65625 326.5 316.597656 326.386719 316.484375 C 326.269531 316.371094 326.210938 316.230469 326.210938 316.070312 C 326.210938 315.90625 326.269531 315.765625 326.386719 315.652344 C 326.5 315.539062 326.640625 315.480469 326.800781 315.480469 C 326.964844 315.480469 327.101562 315.539062 327.21875 315.652344 C 327.332031 315.765625 327.390625 315.90625 327.390625 316.070312 Z M 327.390625 316.070312 " fill-opacity="1" fill-rule="nonzero"/><path fill="#000000" d="M 317.890625 316.070312 C 317.890625 316.230469 317.832031 316.371094 317.71875 316.484375 C 317.601562 316.597656 317.464844 316.65625 317.300781 316.65625 C 317.140625 316.65625 317 316.597656 316.886719 316.484375 C 316.769531 316.371094 316.714844 316.230469 316.714844 316.070312 C 316.714844 315.90625 316.769531 315.765625 316.886719 315.652344 C 317 315.539062 317.140625 315.480469 317.300781 315.480469 C 317.464844 315.480469 317.601562 315.539062 317.71875 315.652344 C 317.832031 315.765625 317.890625 315.90625 317.890625 316.070312 Z M 317.890625 316.070312 " fill-opacity="1" fill-rule="nonzero"/><path fill="#000000" d="M 308.390625 316.070312 C 308.390625 316.230469 308.335938 316.371094 308.21875 316.484375 C 308.105469 316.597656 307.964844 316.65625 307.800781 316.65625 C 307.640625 316.65625 307.5 316.597656 307.386719 316.484375 C 307.269531 316.371094 307.214844 316.230469 307.214844 316.070312 C 307.214844 315.90625 307.269531 315.765625 307.386719 315.652344 C 307.5 315.539062 307.640625 315.480469 307.800781 315.480469 C 307.964844 315.480469 308.105469 315.539062 308.21875 315.652344 C 308.332031 315.765625 308.390625 315.90625 308.390625 316.070312 Z M 308.390625 316.070312 " fill-opacity="1" fill-rule="nonzero"/><path fill="#000000" d="M 384.371094 306.585938 C 384.371094 306.75 384.3125 306.886719 384.199219 307.003906 C 384.082031 307.117188 383.945312 307.175781 383.78125 307.175781 C 383.621094 307.175781 383.480469 307.117188 383.367188 307.003906 C 383.25 306.886719 383.195312 306.75 383.195312 306.585938 C 383.195312 306.425781 383.25 306.285156 383.367188 306.171875 C 383.480469 306.054688 383.621094 306 383.78125 306 C 383.945312 306 384.082031 306.054688 384.199219 306.171875 C 384.3125 306.285156 384.371094 306.425781 384.371094 306.585938 Z M 384.371094 306.585938 " fill-opacity="1" fill-rule="nonzero"/><path fill="#000000" d="M 374.875 306.585938 C 374.875 306.75 374.820312 306.886719 374.703125 307.003906 C 374.589844 307.117188 374.449219 307.175781 374.289062 307.175781 C 374.125 307.175781 373.988281 307.117188 373.871094 307.003906 C 373.757812 306.886719 373.699219 306.75 373.699219 306.585938 C 373.699219 306.425781 373.757812 306.285156 373.871094 306.171875 C 373.988281 306.054688 374.125 306 374.289062 306 C 374.449219 306 374.589844 306.054688 374.703125 306.171875 C 374.820312 306.285156 374.875 306.425781 374.875 306.585938 Z M 374.875 306.585938 " fill-opacity="1" fill-rule="nonzero"/><path fill="#000000" d="M 365.378906 306.585938 C 365.378906 306.75 365.320312 306.886719 365.203125 307.003906 C 365.089844 307.117188 364.953125 307.175781 364.789062 307.175781 C 364.625 307.175781 364.488281 307.117188 364.371094 307.003906 C 364.257812 306.886719 364.199219 306.75 364.199219 306.585938 C 364.199219 306.425781 364.257812 306.285156 364.371094 306.171875 C 364.488281 306.054688 364.625 306 364.789062 306 C 364.953125 306 365.089844 306.054688 365.203125 306.171875 C 365.320312 306.285156 365.378906 306.425781 365.378906 306.585938 Z M 365.378906 306.585938 " fill-opacity="1" fill-rule="nonzero"/><path fill="#000000" d="M 355.882812 306.585938 C 355.882812 306.75 355.824219 306.886719 355.710938 307.003906 C 355.597656 307.117188 355.457031 307.175781 355.292969 307.175781 C 355.132812 307.175781 354.992188 307.117188 354.878906 307.003906 C 354.761719 306.886719 354.707031 306.75 354.707031 306.585938 C 354.707031 306.425781 354.761719 306.285156 354.878906 306.171875 C 354.992188 306.054688 355.132812 306 355.292969 306 C 355.457031 306 355.597656 306.054688 355.710938 306.171875 C 355.824219 306.285156 355.882812 306.425781 355.882812 306.585938 Z M 355.882812 306.585938 " fill-opacity="1" fill-rule="nonzero"/><path fill="#000000" d="M 346.382812 306.585938 C 346.382812 306.75 346.328125 306.886719 346.210938 307.003906 C 346.097656 307.117188 345.957031 307.175781 345.796875 307.175781 C 345.632812 307.175781 345.492188 307.117188 345.378906 307.003906 C 345.265625 306.886719 345.207031 306.75 345.207031 306.585938 C 345.207031 306.425781 345.265625 306.285156 345.378906 306.171875 C 345.492188 306.054688 345.632812 306 345.796875 306 C 345.957031 306 346.097656 306.054688 346.210938 306.171875 C 346.328125 306.285156 346.382812 306.425781 346.382812 306.585938 Z M 346.382812 306.585938 " fill-opacity="1" fill-rule="nonzero"/><path fill="#000000" d="M 336.882812 306.585938 C 336.882812 306.75 336.828125 306.886719 336.710938 307.003906 C 336.597656 307.117188 336.457031 307.175781 336.296875 307.175781 C 336.132812 307.175781 335.996094 307.117188 335.878906 307.003906 C 335.765625 306.886719 335.707031 306.75 335.707031 306.585938 C 335.707031 306.425781 335.765625 306.285156 335.878906 306.171875 C 335.996094 306.054688 336.132812 306 336.296875 306 C 336.457031 306 336.597656 306.054688 336.710938 306.171875 C 336.828125 306.285156 336.882812 306.425781 336.882812 306.585938 Z M 336.882812 306.585938 " fill-opacity="1" fill-rule="nonzero"/><path fill="#000000" d="M 327.390625 306.585938 C 327.390625 306.75 327.332031 306.886719 327.21875 307.003906 C 327.101562 307.117188 326.964844 307.175781 326.800781 307.175781 C 326.640625 307.175781 326.5 307.117188 326.386719 307.003906 C 326.269531 306.886719 326.210938 306.75 326.210938 306.585938 C 326.210938 306.425781 326.269531 306.285156 326.386719 306.171875 C 326.5 306.054688 326.640625 306 326.800781 306 C 326.964844 306 327.101562 306.054688 327.21875 306.171875 C 327.332031 306.285156 327.390625 306.425781 327.390625 306.585938 Z M 327.390625 306.585938 " fill-opacity="1" fill-rule="nonzero"/><path fill="#000000" d="M 317.890625 306.585938 C 317.890625 306.75 317.832031 306.886719 317.71875 307.003906 C 317.601562 307.117188 317.464844 307.175781 317.300781 307.175781 C 317.140625 307.175781 317 307.117188 316.886719 307.003906 C 316.769531 306.886719 316.714844 306.75 316.714844 306.585938 C 316.714844 306.425781 316.769531 306.285156 316.886719 306.171875 C 317 306.054688 317.140625 306 317.300781 306 C 317.464844 306 317.601562 306.054688 317.71875 306.171875 C 317.832031 306.285156 317.890625 306.425781 317.890625 306.585938 Z M 317.890625 306.585938 " fill-opacity="1" fill-rule="nonzero"/><path fill="#000000" d="M 308.390625 306.585938 C 308.390625 306.75 308.335938 306.886719 308.21875 307.003906 C 308.105469 307.117188 307.964844 307.175781 307.800781 307.175781 C 307.640625 307.175781 307.5 307.117188 307.386719 307.003906 C 307.269531 306.886719 307.214844 306.75 307.214844 306.585938 C 307.214844 306.425781 307.269531 306.285156 307.386719 306.171875 C 307.5 306.054688 307.640625 306 307.800781 306 C 307.964844 306 308.105469 306.054688 308.21875 306.171875 C 308.332031 306.285156 308.390625 306.425781 308.390625 306.585938 Z M 308.390625 306.585938 " fill-opacity="1" fill-rule="nonzero"/><g clip-path="url(#a0f65b5043)"><path fill="#000000" d="M 384.371094 297.097656 C 384.371094 297.261719 384.3125 297.398438 384.199219 297.515625 C 384.082031 297.628906 383.945312 297.6875 383.78125 297.6875 C 383.621094 297.6875 383.480469 297.628906 383.367188 297.515625 C 383.25 297.398438 383.195312 297.261719 383.195312 297.097656 C 383.195312 296.9375 383.25 296.796875 383.367188 296.683594 C 383.480469 296.570312 383.621094 296.511719 383.78125 296.511719 C 383.945312 296.511719 384.082031 296.570312 384.199219 296.683594 C 384.3125 296.796875 384.371094 296.9375 384.371094 297.097656 Z M 384.371094 297.097656 " fill-opacity="1" fill-rule="nonzero"/></g><g clip-path="url(#f680b60273)"><path fill="#000000" d="M 374.875 297.097656 C 374.875 297.261719 374.820312 297.398438 374.703125 297.515625 C 374.589844 297.628906 374.449219 297.6875 374.289062 297.6875 C 374.125 297.6875 373.988281 297.628906 373.871094 297.515625 C 373.757812 297.398438 373.699219 297.261719 373.699219 297.097656 C 373.699219 296.9375 373.757812 296.796875 373.871094 296.683594 C 373.988281 296.570312 374.125 296.511719 374.289062 296.511719 C 374.449219 296.511719 374.589844 296.570312 374.703125 296.683594 C 374.820312 296.796875 374.875 296.9375 374.875 297.097656 Z M 374.875 297.097656 " fill-opacity="1" fill-rule="nonzero"/></g><g clip-path="url(#fec98fbc8e)"><path fill="#000000" d="M 365.378906 297.097656 C 365.378906 297.261719 365.320312 297.398438 365.203125 297.515625 C 365.089844 297.628906 364.953125 297.6875 364.789062 297.6875 C 364.625 297.6875 364.488281 297.628906 364.371094 297.515625 C 364.257812 297.398438 364.199219 297.261719 364.199219 297.097656 C 364.199219 296.9375 364.257812 296.796875 364.371094 296.683594 C 364.488281 296.570312 364.625 296.511719 364.789062 296.511719 C 364.953125 296.511719 365.089844 296.570312 365.203125 296.683594 C 365.320312 296.796875 365.378906 296.9375 365.378906 297.097656 Z M 365.378906 297.097656 " fill-opacity="1" fill-rule="nonzero"/></g><g clip-path="url(#1f389cb0d6)"><path fill="#000000" d="M 355.882812 297.097656 C 355.882812 297.261719 355.824219 297.398438 355.710938 297.515625 C 355.597656 297.628906 355.457031 297.6875 355.292969 297.6875 C 355.132812 297.6875 354.992188 297.628906 354.878906 297.515625 C 354.761719 297.398438 354.707031 297.261719 354.707031 297.097656 C 354.707031 296.9375 354.761719 296.796875 354.878906 296.683594 C 354.992188 296.570312 355.132812 296.511719 355.292969 296.511719 C 355.457031 296.511719 355.597656 296.570312 355.710938 296.683594 C 355.824219 296.796875 355.882812 296.9375 355.882812 297.097656 Z M 355.882812 297.097656 " fill-opacity="1" fill-rule="nonzero"/></g><g clip-path="url(#29cd047fb1)"><path fill="#000000" d="M 346.382812 297.097656 C 346.382812 297.261719 346.328125 297.398438 346.210938 297.515625 C 346.097656 297.628906 345.957031 297.6875 345.796875 297.6875 C 345.632812 297.6875 345.492188 297.628906 345.378906 297.515625 C 345.265625 297.398438 345.207031 297.261719 345.207031 297.097656 C 345.207031 296.9375 345.265625 296.796875 345.378906 296.683594 C 345.492188 296.570312 345.632812 296.511719 345.796875 296.511719 C 345.957031 296.511719 346.097656 296.570312 346.210938 296.683594 C 346.328125 296.796875 346.382812 296.9375 346.382812 297.097656 Z M 346.382812 297.097656 " fill-opacity="1" fill-rule="nonzero"/></g><g clip-path="url(#d2b01d8cb8)"><path fill="#000000" d="M 336.882812 297.097656 C 336.882812 297.261719 336.828125 297.398438 336.710938 297.515625 C 336.597656 297.628906 336.457031 297.6875 336.296875 297.6875 C 336.132812 297.6875 335.996094 297.628906 335.878906 297.515625 C 335.765625 297.398438 335.707031 297.261719 335.707031 297.097656 C 335.707031 296.9375 335.765625 296.796875 335.878906 296.683594 C 335.996094 296.570312 336.132812 296.511719 336.296875 296.511719 C 336.457031 296.511719 336.597656 296.570312 336.710938 296.683594 C 336.828125 296.796875 336.882812 296.9375 336.882812 297.097656 Z M 336.882812 297.097656 " fill-opacity="1" fill-rule="nonzero"/></g><g clip-path="url(#69c4a854aa)"><path fill="#000000" d="M 327.390625 297.097656 C 327.390625 297.261719 327.332031 297.398438 327.21875 297.515625 C 327.101562 297.628906 326.964844 297.6875 326.800781 297.6875 C 326.640625 297.6875 326.5 297.628906 326.386719 297.515625 C 326.269531 297.398438 326.210938 297.261719 326.210938 297.097656 C 326.210938 296.9375 326.269531 296.796875 326.386719 296.683594 C 326.5 296.570312 326.640625 296.511719 326.800781 296.511719 C 326.964844 296.511719 327.101562 296.570312 327.21875 296.683594 C 327.332031 296.796875 327.390625 296.9375 327.390625 297.097656 Z M 327.390625 297.097656 " fill-opacity="1" fill-rule="nonzero"/></g><g clip-path="url(#d1436a5cf9)"><path fill="#000000" d="M 317.890625 297.097656 C 317.890625 297.261719 317.832031 297.398438 317.71875 297.515625 C 317.601562 297.628906 317.464844 297.6875 317.300781 297.6875 C 317.140625 297.6875 317 297.628906 316.886719 297.515625 C 316.769531 297.398438 316.714844 297.261719 316.714844 297.097656 C 316.714844 296.9375 316.769531 296.796875 316.886719 296.683594 C 317 296.570312 317.140625 296.511719 317.300781 296.511719 C 317.464844 296.511719 317.601562 296.570312 317.71875 296.683594 C 317.832031 296.796875 317.890625 296.9375 317.890625 297.097656 Z M 317.890625 297.097656 " fill-opacity="1" fill-rule="nonzero"/></g><g clip-path="url(#afe5e5820b)"><path fill="#000000" d="M 308.390625 297.097656 C 308.390625 297.261719 308.335938 297.398438 308.21875 297.515625 C 308.105469 297.628906 307.964844 297.6875 307.800781 297.6875 C 307.640625 297.6875 307.5 297.628906 307.386719 297.515625 C 307.269531 297.398438 307.214844 297.261719 307.214844 297.097656 C 307.214844 296.9375 307.269531 296.796875 307.386719 296.683594 C 307.5 296.570312 307.640625 296.511719 307.800781 296.511719 C 307.964844 296.511719 308.105469 296.570312 308.21875 296.683594 C 308.332031 296.796875 308.390625 296.9375 308.390625 297.097656 Z M 308.390625 297.097656 " fill-opacity="1" fill-rule="nonzero"/></g><path fill="#000000" d="M 276.238281 353.367188 L 270.179688 347.3125 L 285.871094 331.640625 L 270.179688 315.96875 L 276.125 310.03125 L 297.878906 331.757812 L 292.117188 337.511719 Z M 270.917969 347.3125 L 276.238281 352.625 L 297.136719 331.757812 L 276.125 310.769531 L 270.917969 315.96875 L 286.613281 331.640625 Z M 270.917969 347.3125 " fill-opacity="1" fill-rule="nonzero"/><path fill="#000000" d="M 308.308594 353.367188 L 302.246094 347.3125 L 317.9375 331.640625 L 302.246094 315.96875 L 308.191406 310.03125 L 329.945312 331.757812 L 324.183594 337.511719 Z M 302.988281 347.3125 L 308.308594 352.625 L 329.203125 331.757812 L 308.191406 310.769531 L 302.988281 315.96875 L 318.679688 331.640625 Z M 302.988281 347.3125 " fill-opacity="1" fill-rule="nonzero"/><g clip-path="url(#ff5e782539)"><path fill="#000000" d="M 244.171875 353.367188 L 238.109375 347.3125 L 253.800781 331.640625 L 238.109375 315.96875 L 244.054688 310.03125 L 265.808594 331.757812 L 260.046875 337.511719 Z M 238.851562 347.3125 L 244.171875 352.625 L 265.070312 331.757812 L 244.054688 310.769531 L 238.851562 315.96875 L 254.542969 331.640625 Z M 238.851562 347.3125 " fill-opacity="1" fill-rule="nonzero"/></g></svg>