<svg xmlns="http://www.w3.org/2000/svg" xmlns:xlink="http://www.w3.org/1999/xlink" width="327" zoomAndPan="magnify" viewBox="0 0 245.25 98.999996" height="132" preserveAspectRatio="xMidYMid meet" version="1.0"><defs><g/><clipPath id="3574b36e14"><path d="M 0 0.152344 L 240 0.152344 L 240 98.847656 L 0 98.847656 Z M 0 0.152344 " clip-rule="nonzero"/></clipPath><clipPath id="5e51a06132"><path d="M 130 0.152344 L 159 0.152344 L 159 42 L 130 42 Z M 130 0.152344 " clip-rule="nonzero"/></clipPath><clipPath id="c3a9a21840"><rect x="0" width="240" y="0" height="99"/></clipPath></defs><g clip-path="url(#3574b36e14)"><g transform="matrix(1, 0, 0, 1, 0, 0.000000000000001332)"><g clip-path="url(#c3a9a21840)"><g fill="#3758f9" fill-opacity="1"><g transform="translate(3.403559, 45.015722)"><g><path d="M 14.078125 -21.390625 C 14.347656 -21.347656 14.71875 -21.835938 15.1875 -22.859375 C 15.664062 -23.878906 17.4375 -26.707031 20.5 -31.34375 C 23.601562 -35.976562 25.347656 -38.410156 25.734375 -38.640625 C 26.722656 -39.304688 27.785156 -39.34375 28.921875 -38.75 C 30.054688 -38.164062 30.625 -37.304688 30.625 -36.171875 C 30.15625 -34.679688 28.113281 -31.066406 24.5 -25.328125 C 20.882812 -19.597656 18.941406 -16.535156 18.671875 -16.140625 L 16.265625 -11.71875 C 16.265625 -11.25 16.34375 -9.816406 16.5 -7.421875 C 16.65625 -5.023438 16.789062 -3.03125 16.90625 -1.4375 C 17.019531 0.144531 17.15625 1.328125 17.3125 2.109375 C 17.46875 2.898438 17.054688 3.765625 16.078125 4.703125 C 15.097656 5.648438 14.132812 6.003906 13.1875 5.765625 C 12.25 5.453125 11.582031 4.828125 11.1875 3.890625 C 10.832031 2.941406 10.578125 0.820312 10.421875 -2.46875 C 9.992188 -10.476562 8.5625 -17.191406 6.125 -22.609375 C 3.6875 -28.035156 2.269531 -31.691406 1.875 -33.578125 C 1.488281 -35.460938 1.90625 -36.71875 3.125 -37.34375 C 4.34375 -37.976562 5.34375 -38.054688 6.125 -37.578125 C 6.90625 -37.109375 7.691406 -35.8125 8.484375 -33.6875 C 9.191406 -31.570312 10.25 -28.984375 11.65625 -25.921875 C 13.070312 -22.859375 13.878906 -21.347656 14.078125 -21.390625 Z M 14.078125 -21.390625 "/></g></g></g><g fill="#3758f9" fill-opacity="1"><g transform="translate(35.796718, 45.015722)"><g><path d="M 12.78125 -7.0625 C 13.332031 -7.0625 14.132812 -7.882812 15.1875 -9.53125 C 16.25 -11.1875 17.09375 -12.957031 17.71875 -14.84375 C 18.351562 -16.726562 18.691406 -18.023438 18.734375 -18.734375 C 18.734375 -19.441406 18.421875 -20.070312 17.796875 -20.625 C 16.023438 -21.476562 14.429688 -21.550781 13.015625 -20.84375 C 11.597656 -20.144531 10.457031 -18.929688 9.59375 -17.203125 C 8.738281 -15.472656 8.445312 -13.765625 8.71875 -12.078125 C 8.914062 -11.097656 9.484375 -10.015625 10.421875 -8.828125 C 11.367188 -7.648438 12.15625 -7.0625 12.78125 -7.0625 Z M 28.453125 -12.484375 C 29.628906 -6.828125 30.21875 -3.410156 30.21875 -2.234375 C 30.21875 -1.054688 29.960938 -0.234375 29.453125 0.234375 C 28.941406 0.703125 28.113281 0.9375 26.96875 0.9375 C 25.832031 0.9375 25.046875 0.625 24.609375 0 C 24.179688 -0.625 23.734375 -2.15625 23.265625 -4.59375 C 22.796875 -7.03125 22.460938 -8.25 22.265625 -8.25 C 22.148438 -8.25 21.519531 -7.382812 20.375 -5.65625 C 18.375 -2.4375 15.765625 -0.828125 12.546875 -0.828125 C 9.328125 -0.828125 6.640625 -2.472656 4.484375 -5.765625 C 2.867188 -8.285156 1.984375 -10.566406 1.828125 -12.609375 C 1.671875 -14.648438 2.101562 -16.726562 3.125 -18.84375 C 4.144531 -20.96875 5.457031 -22.835938 7.0625 -24.453125 C 8.675781 -26.097656 10.113281 -27.117188 11.375 -27.515625 C 14.707031 -28.648438 18.179688 -28.117188 21.796875 -25.921875 C 23.910156 -24.617188 25.242188 -23.457031 25.796875 -22.4375 C 26.347656 -21.457031 27.234375 -18.140625 28.453125 -12.484375 Z M 28.453125 -12.484375 "/></g></g></g><g fill="#3758f9" fill-opacity="1"><g transform="translate(67.777605, 45.015722)"><g><path d="M 12.78125 -7.0625 C 13.332031 -7.0625 14.132812 -7.882812 15.1875 -9.53125 C 16.25 -11.1875 17.09375 -12.957031 17.71875 -14.84375 C 18.351562 -16.726562 18.691406 -18.023438 18.734375 -18.734375 C 18.734375 -19.441406 18.421875 -20.070312 17.796875 -20.625 C 16.023438 -21.476562 14.429688 -21.550781 13.015625 -20.84375 C 11.597656 -20.144531 10.457031 -18.929688 9.59375 -17.203125 C 8.738281 -15.472656 8.445312 -13.765625 8.71875 -12.078125 C 8.914062 -11.097656 9.484375 -10.015625 10.421875 -8.828125 C 11.367188 -7.648438 12.15625 -7.0625 12.78125 -7.0625 Z M 28.453125 -12.484375 C 29.628906 -6.828125 30.21875 -3.410156 30.21875 -2.234375 C 30.21875 -1.054688 29.960938 -0.234375 29.453125 0.234375 C 28.941406 0.703125 28.113281 0.9375 26.96875 0.9375 C 25.832031 0.9375 25.046875 0.625 24.609375 0 C 24.179688 -0.625 23.734375 -2.15625 23.265625 -4.59375 C 22.796875 -7.03125 22.460938 -8.25 22.265625 -8.25 C 22.148438 -8.25 21.519531 -7.382812 20.375 -5.65625 C 18.375 -2.4375 15.765625 -0.828125 12.546875 -0.828125 C 9.328125 -0.828125 6.640625 -2.472656 4.484375 -5.765625 C 2.867188 -8.285156 1.984375 -10.566406 1.828125 -12.609375 C 1.671875 -14.648438 2.101562 -16.726562 3.125 -18.84375 C 4.144531 -20.96875 5.457031 -22.835938 7.0625 -24.453125 C 8.675781 -26.097656 10.113281 -27.117188 11.375 -27.515625 C 14.707031 -28.648438 18.179688 -28.117188 21.796875 -25.921875 C 23.910156 -24.617188 25.242188 -23.457031 25.796875 -22.4375 C 26.347656 -21.457031 27.234375 -18.140625 28.453125 -12.484375 Z M 28.453125 -12.484375 "/></g></g></g><g fill="#3758f9" fill-opacity="1"><g transform="translate(99.758492, 45.015722)"><g><path d="M 12.78125 -7.0625 C 13.332031 -7.0625 14.132812 -7.882812 15.1875 -9.53125 C 16.25 -11.1875 17.09375 -12.957031 17.71875 -14.84375 C 18.351562 -16.726562 18.691406 -18.023438 18.734375 -18.734375 C 18.734375 -19.441406 18.421875 -20.070312 17.796875 -20.625 C 16.023438 -21.476562 14.429688 -21.550781 13.015625 -20.84375 C 11.597656 -20.144531 10.457031 -18.929688 9.59375 -17.203125 C 8.738281 -15.472656 8.445312 -13.765625 8.71875 -12.078125 C 8.914062 -11.097656 9.484375 -10.015625 10.421875 -8.828125 C 11.367188 -7.648438 12.15625 -7.0625 12.78125 -7.0625 Z M 28.453125 -12.484375 C 29.628906 -6.828125 30.21875 -3.410156 30.21875 -2.234375 C 30.21875 -1.054688 29.960938 -0.234375 29.453125 0.234375 C 28.941406 0.703125 28.113281 0.9375 26.96875 0.9375 C 25.832031 0.9375 25.046875 0.625 24.609375 0 C 24.179688 -0.625 23.734375 -2.15625 23.265625 -4.59375 C 22.796875 -7.03125 22.460938 -8.25 22.265625 -8.25 C 22.148438 -8.25 21.519531 -7.382812 20.375 -5.65625 C 18.375 -2.4375 15.765625 -0.828125 12.546875 -0.828125 C 9.328125 -0.828125 6.640625 -2.472656 4.484375 -5.765625 C 2.867188 -8.285156 1.984375 -10.566406 1.828125 -12.609375 C 1.671875 -14.648438 2.101562 -16.726562 3.125 -18.84375 C 4.144531 -20.96875 5.457031 -22.835938 7.0625 -24.453125 C 8.675781 -26.097656 10.113281 -27.117188 11.375 -27.515625 C 14.707031 -28.648438 18.179688 -28.117188 21.796875 -25.921875 C 23.910156 -24.617188 25.242188 -23.457031 25.796875 -22.4375 C 26.347656 -21.457031 27.234375 -18.140625 28.453125 -12.484375 Z M 28.453125 -12.484375 "/></g></g></g><g fill="#3758f9" fill-opacity="1"><g transform="translate(131.739379, 45.015722)"><g><path d="M 28.859375 -10.890625 C 29.097656 -6.535156 29.019531 -3.847656 28.625 -2.828125 C 28.238281 -1.804688 27.335938 -1.316406 25.921875 -1.359375 C 24.503906 -1.316406 23.597656 -1.765625 23.203125 -2.703125 C 22.816406 -3.648438 22.546875 -5.929688 22.390625 -9.546875 C 22.234375 -13.160156 21.878906 -15.632812 21.328125 -16.96875 C 20.859375 -18.300781 19.71875 -19.398438 17.90625 -20.265625 C 16.101562 -21.128906 14.648438 -21.363281 13.546875 -20.96875 C 12.765625 -20.738281 12.21875 -20.460938 11.90625 -20.140625 C 11.664062 -19.828125 11.46875 -19.238281 11.3125 -18.375 C 11.15625 -17.507812 10.800781 -15.425781 10.25 -12.125 C 9.695312 -8.832031 9.34375 -6.5 9.1875 -5.125 C 9.03125 -3.75 8.519531 -2.75 7.65625 -2.125 C 6.71875 -1.570312 5.773438 -1.410156 4.828125 -1.640625 C 3.890625 -1.878906 3.320312 -2.410156 3.125 -3.234375 C 2.925781 -4.066406 2.75 -9.566406 2.59375 -19.734375 C 2.4375 -29.898438 2.238281 -35.453125 2 -36.390625 C 1.769531 -37.335938 1.691406 -38.046875 1.765625 -38.515625 C 1.847656 -38.992188 2.125 -39.46875 2.59375 -39.9375 C 3.0625 -40.40625 3.707031 -40.675781 4.53125 -40.75 C 5.351562 -40.832031 6.039062 -40.695312 6.59375 -40.34375 C 7.925781 -39.488281 8.789062 -35.800781 9.1875 -29.28125 L 9.3125 -27.21875 L 13.4375 -27.515625 C 15.238281 -27.628906 16.53125 -27.625 17.3125 -27.5 C 18.101562 -27.382812 19.207031 -27.035156 20.625 -26.453125 C 23.71875 -24.992188 25.804688 -23.125 26.890625 -20.84375 C 27.972656 -18.570312 28.628906 -15.253906 28.859375 -10.890625 Z M 28.859375 -10.890625 "/></g></g></g><g fill="#3758f9" fill-opacity="1"><g transform="translate(162.542325, 45.015722)"><g><path d="M 1.765625 -2.953125 C 1.765625 -3.296875 2 -3.804688 2.46875 -4.484375 C 3.257812 -5.734375 4.320312 -6.203125 5.65625 -5.890625 C 6.988281 -5.578125 7.832031 -4.691406 8.1875 -3.234375 C 8.457031 -2.179688 8.21875 -1.300781 7.46875 -0.59375 C 6.726562 0.113281 5.828125 0.390625 4.765625 0.234375 C 3.710938 0.078125 2.945312 -0.390625 2.46875 -1.171875 C 2 -1.960938 1.765625 -2.554688 1.765625 -2.953125 Z M 1.765625 -2.953125 "/></g></g></g><g fill="#3758f9" fill-opacity="1"><g transform="translate(172.61365, 45.015722)"><g><path d="M 1.765625 -2.953125 C 1.765625 -3.296875 2 -3.804688 2.46875 -4.484375 C 3.257812 -5.734375 4.320312 -6.203125 5.65625 -5.890625 C 6.988281 -5.578125 7.832031 -4.691406 8.1875 -3.234375 C 8.457031 -2.179688 8.21875 -1.300781 7.46875 -0.59375 C 6.726562 0.113281 5.828125 0.390625 4.765625 0.234375 C 3.710938 0.078125 2.945312 -0.390625 2.46875 -1.171875 C 2 -1.960938 1.765625 -2.554688 1.765625 -2.953125 Z M 1.765625 -2.953125 "/></g></g></g><g fill="#3758f9" fill-opacity="1"><g transform="translate(182.691426, 45.015722)"><g/></g></g><g fill="#3758f9" fill-opacity="1"><g transform="translate(3.403559, 90.044023)"><g/></g></g><g fill="#3758f9" fill-opacity="1"><g transform="translate(25.313107, 90.044023)"><g/></g></g><g fill="#3758f9" fill-opacity="1"><g transform="translate(47.222655, 90.044023)"><g/></g></g><g fill="#3758f9" fill-opacity="1"><g transform="translate(69.132204, 90.044023)"><g/></g></g><g fill="#3758f9" fill-opacity="1"><g transform="translate(91.051795, 90.044023)"><g/></g></g><g fill="#3758f9" fill-opacity="1"><g transform="translate(91.051795, 90.044023)"><g><path d="M 34.703125 -0.234375 C 33.203125 -0.234375 32.296875 -0.664062 31.984375 -1.53125 C 31.671875 -2.394531 31.472656 -4.867188 31.390625 -8.953125 C 31.390625 -13.035156 31.253906 -15.507812 30.984375 -16.375 C 30.828125 -16.769531 30.472656 -16.457031 29.921875 -15.4375 C 29.367188 -14.414062 28.523438 -12.609375 27.390625 -10.015625 C 26.253906 -7.421875 25.410156 -5.550781 24.859375 -4.40625 C 24.304688 -3.269531 23.734375 -2.390625 23.140625 -1.765625 C 22.554688 -1.140625 22.035156 -0.851562 21.578125 -0.90625 C 21.128906 -0.96875 20.472656 -1.222656 19.609375 -1.671875 C 18.742188 -2.128906 17.367188 -3.769531 15.484375 -6.59375 C 13.609375 -9.425781 11.960938 -12.3125 10.546875 -15.25 C 9.796875 -16.664062 9.289062 -17.375 9.03125 -17.375 C 8.78125 -17.375 8.535156 -14.035156 8.296875 -7.359375 C 8.066406 -0.679688 7.796875 3.320312 7.484375 4.65625 C 7.171875 5.988281 6.34375 6.65625 5 6.65625 C 4.144531 6.695312 3.441406 6.441406 2.890625 5.890625 C 2.335938 5.335938 2 4.628906 1.875 3.765625 C 1.757812 2.898438 1.722656 0.613281 1.765625 -3.09375 C 1.804688 -6.800781 2.019531 -11.640625 2.40625 -17.609375 C 2.800781 -23.578125 3.117188 -27.179688 3.359375 -28.421875 C 3.597656 -29.660156 4.066406 -30.710938 4.765625 -31.578125 C 5.554688 -32.441406 6.421875 -32.832031 7.359375 -32.75 C 8.304688 -32.675781 8.972656 -32.441406 9.359375 -32.046875 C 9.753906 -31.648438 10.5625 -30.113281 11.78125 -27.4375 C 13 -24.769531 14.664062 -21.429688 16.78125 -17.421875 C 18.90625 -13.421875 20.085938 -11.363281 20.328125 -11.25 C 20.710938 -11.132812 22.125 -13.941406 24.5625 -19.671875 C 27 -25.410156 28.6875 -28.882812 29.625 -30.09375 C 30.289062 -30.84375 31.113281 -31.332031 32.09375 -31.5625 C 33.082031 -31.800781 33.929688 -31.6875 34.640625 -31.21875 C 35.347656 -30.75 35.984375 -28.707031 36.546875 -25.09375 C 37.117188 -21.476562 37.441406 -17.742188 37.515625 -13.890625 C 37.597656 -10.046875 37.675781 -7.335938 37.75 -5.765625 C 37.832031 -4.203125 37.71875 -3.003906 37.40625 -2.171875 C 37.164062 -1.347656 36.847656 -0.816406 36.453125 -0.578125 C 36.066406 -0.347656 35.484375 -0.234375 34.703125 -0.234375 Z M 34.703125 -0.234375 "/></g></g></g><g fill="#3758f9" fill-opacity="1"><g transform="translate(130.630344, 90.044023)"><g><path d="M 12.78125 -7.0625 C 13.332031 -7.0625 14.132812 -7.882812 15.1875 -9.53125 C 16.25 -11.1875 17.09375 -12.957031 17.71875 -14.84375 C 18.351562 -16.726562 18.691406 -18.023438 18.734375 -18.734375 C 18.734375 -19.441406 18.421875 -20.070312 17.796875 -20.625 C 16.023438 -21.476562 14.429688 -21.550781 13.015625 -20.84375 C 11.597656 -20.144531 10.457031 -18.929688 9.59375 -17.203125 C 8.738281 -15.472656 8.445312 -13.765625 8.71875 -12.078125 C 8.914062 -11.097656 9.484375 -10.015625 10.421875 -8.828125 C 11.367188 -7.648438 12.15625 -7.0625 12.78125 -7.0625 Z M 28.453125 -12.484375 C 29.628906 -6.828125 30.21875 -3.410156 30.21875 -2.234375 C 30.21875 -1.054688 29.960938 -0.234375 29.453125 0.234375 C 28.941406 0.703125 28.113281 0.9375 26.96875 0.9375 C 25.832031 0.9375 25.046875 0.625 24.609375 0 C 24.179688 -0.625 23.734375 -2.15625 23.265625 -4.59375 C 22.796875 -7.03125 22.460938 -8.25 22.265625 -8.25 C 22.148438 -8.25 21.519531 -7.382812 20.375 -5.65625 C 18.375 -2.4375 15.765625 -0.828125 12.546875 -0.828125 C 9.328125 -0.828125 6.640625 -2.472656 4.484375 -5.765625 C 2.867188 -8.285156 1.984375 -10.566406 1.828125 -12.609375 C 1.671875 -14.648438 2.101562 -16.726562 3.125 -18.84375 C 4.144531 -20.96875 5.457031 -22.835938 7.0625 -24.453125 C 8.675781 -26.097656 10.113281 -27.117188 11.375 -27.515625 C 14.707031 -28.648438 18.179688 -28.117188 21.796875 -25.921875 C 23.910156 -24.617188 25.242188 -23.457031 25.796875 -22.4375 C 26.347656 -21.457031 27.234375 -18.140625 28.453125 -12.484375 Z M 28.453125 -12.484375 "/></g></g></g><g fill="#3758f9" fill-opacity="1"><g transform="translate(162.611231, 90.044023)"><g><path d="M 12.78125 -7.0625 C 13.332031 -7.0625 14.132812 -7.882812 15.1875 -9.53125 C 16.25 -11.1875 17.09375 -12.957031 17.71875 -14.84375 C 18.351562 -16.726562 18.691406 -18.023438 18.734375 -18.734375 C 18.734375 -19.441406 18.421875 -20.070312 17.796875 -20.625 C 16.023438 -21.476562 14.429688 -21.550781 13.015625 -20.84375 C 11.597656 -20.144531 10.457031 -18.929688 9.59375 -17.203125 C 8.738281 -15.472656 8.445312 -13.765625 8.71875 -12.078125 C 8.914062 -11.097656 9.484375 -10.015625 10.421875 -8.828125 C 11.367188 -7.648438 12.15625 -7.0625 12.78125 -7.0625 Z M 28.453125 -12.484375 C 29.628906 -6.828125 30.21875 -3.410156 30.21875 -2.234375 C 30.21875 -1.054688 29.960938 -0.234375 29.453125 0.234375 C 28.941406 0.703125 28.113281 0.9375 26.96875 0.9375 C 25.832031 0.9375 25.046875 0.625 24.609375 0 C 24.179688 -0.625 23.734375 -2.15625 23.265625 -4.59375 C 22.796875 -7.03125 22.460938 -8.25 22.265625 -8.25 C 22.148438 -8.25 21.519531 -7.382812 20.375 -5.65625 C 18.375 -2.4375 15.765625 -0.828125 12.546875 -0.828125 C 9.328125 -0.828125 6.640625 -2.472656 4.484375 -5.765625 C 2.867188 -8.285156 1.984375 -10.566406 1.828125 -12.609375 C 1.671875 -14.648438 2.101562 -16.726562 3.125 -18.84375 C 4.144531 -20.96875 5.457031 -22.835938 7.0625 -24.453125 C 8.675781 -26.097656 10.113281 -27.117188 11.375 -27.515625 C 14.707031 -28.648438 18.179688 -28.117188 21.796875 -25.921875 C 23.910156 -24.617188 25.242188 -23.457031 25.796875 -22.4375 C 26.347656 -21.457031 27.234375 -18.140625 28.453125 -12.484375 Z M 28.453125 -12.484375 "/></g></g></g><g fill="#3758f9" fill-opacity="1"><g transform="translate(194.592118, 90.044023)"><g><path d="M 9.78125 -10.3125 L 9.78125 -17.96875 L 6.65625 -17.96875 C 4.96875 -18.007812 3.726562 -18.265625 2.9375 -18.734375 C 2.15625 -19.203125 1.765625 -19.984375 1.765625 -21.078125 C 1.765625 -22.179688 2.078125 -22.945312 2.703125 -23.375 C 3.335938 -23.8125 4.597656 -24.109375 6.484375 -24.265625 L 10.078125 -24.5625 L 10.484375 -28.8125 C 11.035156 -34.101562 12.390625 -37.5 14.546875 -39 C 15.765625 -39.863281 17.160156 -40.21875 18.734375 -40.0625 C 20.304688 -39.90625 22.382812 -39.21875 24.96875 -38 C 27.5625 -36.78125 29.171875 -35.738281 29.796875 -34.875 C 30.429688 -34.007812 30.472656 -33.023438 29.921875 -31.921875 C 29.367188 -30.828125 28.582031 -30.28125 27.5625 -30.28125 C 26.539062 -30.28125 24.753906 -30.828125 22.203125 -31.921875 C 19.648438 -33.023438 18.238281 -33.441406 17.96875 -33.171875 C 17.65625 -32.691406 17.359375 -29.957031 17.078125 -24.96875 C 20.460938 -24.5 22.503906 -24.265625 23.203125 -24.265625 C 23.910156 -24.265625 24.617188 -23.910156 25.328125 -23.203125 C 26.035156 -22.503906 26.367188 -21.625 26.328125 -20.5625 C 26.367188 -19.5 25.992188 -18.769531 25.203125 -18.375 C 24.421875 -17.988281 22.910156 -17.832031 20.671875 -17.90625 L 16.78125 -18.03125 C 16.269531 -12.757812 16.210938 -8.140625 16.609375 -4.171875 C 17.003906 -0.210938 17.160156 2.078125 17.078125 2.703125 C 17.003906 3.335938 16.648438 3.925781 16.015625 4.46875 C 15.390625 5.019531 14.6875 5.257812 13.90625 5.1875 C 13.082031 5.101562 12.332031 4.75 11.65625 4.125 C 10.40625 2.988281 9.78125 -1.820312 9.78125 -10.3125 Z M 9.78125 -10.3125 "/></g></g></g><g fill="#3758f9" fill-opacity="1"><g transform="translate(226.690785, 90.044023)"><g><path d="M 3.359375 -0.0625 C 2.691406 -0.613281 2.359375 -1.300781 2.359375 -2.125 C 2.359375 -2.945312 2.671875 -3.691406 3.296875 -4.359375 C 4.242188 -5.378906 5.382812 -5.65625 6.71875 -5.1875 C 8.050781 -4.71875 8.71875 -3.753906 8.71875 -2.296875 C 8.71875 -0.847656 8.085938 0.128906 6.828125 0.640625 C 5.578125 1.148438 4.421875 0.914062 3.359375 -0.0625 Z M 2.46875 -19.671875 C 2 -22.578125 1.765625 -25.285156 1.765625 -27.796875 C 1.765625 -30.316406 1.820312 -31.925781 1.9375 -32.625 C 2.0625 -33.332031 2.378906 -33.960938 2.890625 -34.515625 C 4.222656 -35.847656 5.65625 -35.96875 7.1875 -34.875 C 7.65625 -34.5625 7.96875 -33.894531 8.125 -32.875 C 8.28125 -31.851562 8.519531 -29.023438 8.84375 -24.390625 C 9.070312 -19.753906 9.1875 -17.003906 9.1875 -16.140625 C 9.1875 -15.273438 8.988281 -14.609375 8.59375 -14.140625 C 8.207031 -13.671875 7.460938 -13.4375 6.359375 -13.4375 C 5.265625 -13.4375 4.476562 -13.75 4 -14.375 C 3.457031 -15 2.945312 -16.765625 2.46875 -19.671875 Z M 2.46875 -19.671875 "/></g></g></g><g fill="#3758f9" fill-opacity="1"><g transform="translate(237.650848, 90.044023)"><g/></g></g><g fill="#3758f9" fill-opacity="1"><g transform="translate(0.747713, 42.359877)"><g><path d="M 14.148438 -21.875 C 14.089844 -21.886719 14.046875 -21.878906 14.019531 -21.863281 C 14.058594 -21.886719 14.109375 -21.941406 14.167969 -22.023438 C 14.335938 -22.238281 14.527344 -22.585938 14.746094 -23.066406 C 15.230469 -24.109375 17.007812 -26.957031 20.085938 -31.613281 C 23.230469 -36.3125 25.03125 -38.796875 25.488281 -39.070312 L 25.742188 -38.644531 L 25.464844 -39.054688 C 26.609375 -39.835938 27.839844 -39.882812 29.152344 -39.203125 C 30.472656 -38.523438 31.128906 -37.511719 31.128906 -36.171875 L 31.128906 -36.09375 L 31.105469 -36.019531 C 30.621094 -34.488281 28.5625 -30.835938 24.925781 -25.066406 C 21.308594 -19.324219 19.359375 -16.253906 19.082031 -15.855469 L 18.675781 -16.140625 L 19.109375 -15.902344 L 16.695312 -11.484375 L 16.257812 -11.722656 L 16.757812 -11.722656 C 16.757812 -11.261719 16.835938 -9.839844 16.992188 -7.457031 L 17.402344 -1.476562 C 17.519531 0.0898438 17.652344 1.257812 17.808594 2.023438 C 18 2.988281 17.539062 4.003906 16.425781 5.070312 C 15.3125 6.140625 14.195312 6.535156 13.074219 6.253906 L 13.054688 6.25 L 13.039062 6.246094 C 11.953125 5.882812 11.183594 5.160156 10.734375 4.078125 L 10.726562 4.0625 C 10.355469 3.070312 10.089844 0.898438 9.929688 -2.449219 C 9.5 -10.398438 8.082031 -17.054688 5.671875 -22.417969 C 3.222656 -27.871094 1.796875 -31.554688 1.398438 -33.476562 C 0.953125 -35.609375 1.453125 -37.046875 2.894531 -37.789062 C 4.277344 -38.503906 5.4375 -38.578125 6.382812 -38.011719 C 7.269531 -37.480469 8.125 -36.097656 8.949219 -33.867188 L 8.953125 -33.859375 L 8.953125 -33.851562 C 9.65625 -31.75 10.710938 -29.175781 12.117188 -26.128906 C 12.816406 -24.605469 13.367188 -23.46875 13.765625 -22.722656 C 13.960938 -22.359375 14.113281 -22.09375 14.230469 -21.925781 C 14.273438 -21.859375 14.308594 -21.816406 14.328125 -21.792969 C 14.246094 -21.875 14.132812 -21.902344 13.980469 -21.871094 L 14.066406 -21.886719 Z M 14.007812 -20.890625 L 14.078125 -21.382812 L 14.175781 -20.898438 C 13.914062 -20.84375 13.65625 -21 13.40625 -21.367188 C 13.273438 -21.566406 13.097656 -21.859375 12.890625 -22.253906 C 12.484375 -23.019531 11.921875 -24.171875 11.210938 -25.710938 C 9.792969 -28.792969 8.722656 -31.402344 8.011719 -33.539062 L 8.484375 -33.695312 L 8.015625 -33.523438 C 7.273438 -35.535156 6.554688 -36.746094 5.871094 -37.15625 C 5.242188 -37.535156 4.402344 -37.449219 3.351562 -36.90625 C 2.355469 -36.394531 2.03125 -35.316406 2.371094 -33.679688 C 2.757812 -31.828125 4.160156 -28.210938 6.578125 -22.824219 C 9.039062 -17.347656 10.488281 -10.574219 10.921875 -2.496094 C 11.078125 0.75 11.324219 2.820312 11.65625 3.714844 L 11.191406 3.886719 L 11.652344 3.695312 C 11.984375 4.5 12.554688 5.035156 13.351562 5.300781 L 13.195312 5.773438 L 13.316406 5.289062 C 14.082031 5.480469 14.886719 5.167969 15.738281 4.355469 C 16.589844 3.539062 16.953125 2.824219 16.832031 2.21875 C 16.671875 1.414062 16.53125 0.203125 16.410156 -1.410156 L 16 -7.390625 C 15.839844 -9.796875 15.761719 -11.242188 15.761719 -11.722656 L 15.761719 -11.851562 L 18.25 -16.402344 L 18.265625 -16.425781 C 18.539062 -16.8125 20.476562 -19.867188 24.085938 -25.597656 C 27.675781 -31.292969 29.699219 -34.867188 30.160156 -36.320312 L 30.632812 -36.171875 L 30.136719 -36.171875 C 30.136719 -37.109375 29.65625 -37.824219 28.695312 -38.320312 C 27.734375 -38.820312 26.839844 -38.789062 26.023438 -38.234375 L 26 -38.21875 C 25.671875 -38.019531 23.976562 -35.636719 20.914062 -31.066406 C 17.867188 -26.453125 16.109375 -23.648438 15.648438 -22.648438 C 15.398438 -22.105469 15.167969 -21.695312 14.960938 -21.421875 C 14.65625 -21.019531 14.339844 -20.84375 14.007812 -20.890625 Z M 14.007812 -20.890625 "/></g></g></g><g fill="#3758f9" fill-opacity="1"><g transform="translate(33.140873, 42.359877)"><g><path d="M 12.785156 -7.566406 C 12.917969 -7.566406 13.140625 -7.722656 13.445312 -8.035156 C 13.824219 -8.421875 14.269531 -9.015625 14.78125 -9.8125 C 15.816406 -11.425781 16.644531 -13.15625 17.261719 -15.003906 C 17.875 -16.84375 18.199219 -18.097656 18.238281 -18.761719 L 18.734375 -18.734375 L 18.234375 -18.734375 C 18.234375 -19.289062 17.976562 -19.792969 17.464844 -20.242188 L 17.789062 -20.617188 L 17.570312 -20.171875 C 15.953125 -20.964844 14.507812 -21.042969 13.242188 -20.410156 C 11.925781 -19.75 10.863281 -18.609375 10.046875 -16.980469 C 9.230469 -15.347656 8.953125 -13.738281 9.210938 -12.15625 L 8.71875 -12.078125 L 9.207031 -12.175781 C 9.386719 -11.269531 9.921875 -10.261719 10.816406 -9.148438 C 11.65625 -8.09375 12.3125 -7.566406 12.785156 -7.566406 Z M 12.785156 -6.570312 C 11.996094 -6.570312 11.082031 -7.222656 10.039062 -8.527344 C 9.046875 -9.765625 8.441406 -10.917969 8.230469 -11.980469 L 8.230469 -11.988281 L 8.226562 -11.996094 C 7.9375 -13.789062 8.246094 -15.601562 9.15625 -17.421875 C 10.070312 -19.25 11.285156 -20.542969 12.796875 -21.296875 C 14.355469 -22.078125 16.09375 -22 18.007812 -21.066406 L 18.066406 -21.035156 L 18.117188 -20.992188 C 18.859375 -20.34375 19.230469 -19.589844 19.230469 -18.734375 L 19.230469 -18.707031 C 19.1875 -17.953125 18.84375 -16.613281 18.203125 -14.6875 C 17.5625 -12.761719 16.699219 -10.957031 15.617188 -9.273438 C 15.070312 -8.421875 14.582031 -7.777344 14.15625 -7.339844 C 13.65625 -6.828125 13.199219 -6.570312 12.785156 -6.570312 Z M 28.941406 -12.589844 C 30.125 -6.902344 30.71875 -3.449219 30.71875 -2.238281 C 30.71875 -0.914062 30.410156 0.03125 29.792969 0.601562 C 29.1875 1.160156 28.25 1.441406 26.980469 1.441406 C 25.667969 1.441406 24.746094 1.054688 24.214844 0.28125 C 23.742188 -0.402344 23.265625 -1.996094 22.78125 -4.5 C 22.546875 -5.707031 22.347656 -6.605469 22.1875 -7.203125 C 22.109375 -7.484375 22.042969 -7.691406 21.984375 -7.820312 C 21.96875 -7.859375 21.957031 -7.882812 21.953125 -7.890625 C 22.023438 -7.796875 22.128906 -7.75 22.269531 -7.75 C 22.378906 -7.75 22.464844 -7.777344 22.527344 -7.832031 C 22.515625 -7.820312 22.492188 -7.796875 22.460938 -7.761719 C 22.375 -7.664062 22.257812 -7.511719 22.109375 -7.308594 C 21.800781 -6.882812 21.363281 -6.238281 20.796875 -5.382812 L 20.382812 -5.65625 L 20.804688 -5.394531 C 18.703125 -2.015625 15.953125 -0.328125 12.546875 -0.328125 C 9.148438 -0.328125 6.320312 -2.050781 4.0625 -5.5 C 2.402344 -8.085938 1.492188 -10.441406 1.332031 -12.570312 C 1.167969 -14.699219 1.613281 -16.867188 2.675781 -19.066406 C 3.71875 -21.238281 5.066406 -23.148438 6.71875 -24.796875 C 8.382812 -26.503906 9.882812 -27.566406 11.222656 -27.984375 L 11.371094 -27.511719 L 11.207031 -27.980469 C 14.695312 -29.171875 18.308594 -28.625 22.054688 -26.34375 C 24.253906 -25 25.648438 -23.78125 26.238281 -22.679688 C 26.8125 -21.660156 27.710938 -18.296875 28.9375 -12.59375 Z M 27.96875 -12.382812 C 26.761719 -17.992188 25.894531 -21.265625 25.363281 -22.207031 C 24.855469 -23.152344 23.582031 -24.246094 21.539062 -25.496094 C 18.058594 -27.613281 14.722656 -28.128906 11.53125 -27.039062 L 11.523438 -27.039062 L 11.519531 -27.035156 C 10.339844 -26.667969 8.976562 -25.6875 7.421875 -24.097656 C 5.851562 -22.527344 4.566406 -20.707031 3.570312 -18.636719 C 2.585938 -16.59375 2.171875 -14.597656 2.320312 -12.644531 C 2.472656 -10.6875 3.328125 -8.484375 4.894531 -6.046875 C 6.953125 -2.894531 9.507812 -1.320312 12.546875 -1.320312 C 15.582031 -1.320312 18.054688 -2.855469 19.960938 -5.917969 L 19.964844 -5.921875 L 19.96875 -5.929688 C 20.542969 -6.800781 20.988281 -7.453125 21.304688 -7.890625 C 21.472656 -8.117188 21.605469 -8.292969 21.707031 -8.410156 C 21.898438 -8.632812 22.085938 -8.746094 22.269531 -8.746094 C 22.535156 -8.746094 22.742188 -8.570312 22.894531 -8.21875 C 22.972656 -8.042969 23.054688 -7.792969 23.144531 -7.464844 C 23.316406 -6.84375 23.519531 -5.917969 23.757812 -4.6875 C 24.214844 -2.324219 24.640625 -0.851562 25.035156 -0.28125 C 25.367188 0.203125 26.015625 0.445312 26.980469 0.445312 C 27.988281 0.445312 28.703125 0.253906 29.117188 -0.128906 C 29.519531 -0.503906 29.722656 -1.207031 29.722656 -2.238281 C 29.722656 -3.382812 29.136719 -6.765625 27.964844 -12.386719 Z M 27.96875 -12.382812 "/></g></g></g><g fill="#3758f9" fill-opacity="1"><g transform="translate(65.12176, 42.359877)"><g><path d="M 12.785156 -7.566406 C 12.917969 -7.566406 13.140625 -7.722656 13.445312 -8.035156 C 13.824219 -8.421875 14.269531 -9.015625 14.78125 -9.8125 C 15.816406 -11.425781 16.644531 -13.15625 17.261719 -15.003906 C 17.875 -16.84375 18.199219 -18.097656 18.238281 -18.761719 L 18.734375 -18.734375 L 18.234375 -18.734375 C 18.234375 -19.289062 17.976562 -19.792969 17.464844 -20.242188 L 17.789062 -20.617188 L 17.570312 -20.171875 C 15.953125 -20.964844 14.507812 -21.042969 13.242188 -20.410156 C 11.925781 -19.75 10.863281 -18.609375 10.046875 -16.980469 C 9.230469 -15.347656 8.953125 -13.738281 9.210938 -12.15625 L 8.71875 -12.078125 L 9.207031 -12.175781 C 9.386719 -11.269531 9.921875 -10.261719 10.816406 -9.148438 C 11.65625 -8.09375 12.3125 -7.566406 12.785156 -7.566406 Z M 12.785156 -6.570312 C 11.996094 -6.570312 11.082031 -7.222656 10.039062 -8.527344 C 9.046875 -9.765625 8.441406 -10.917969 8.230469 -11.980469 L 8.230469 -11.988281 L 8.226562 -11.996094 C 7.9375 -13.789062 8.246094 -15.601562 9.15625 -17.421875 C 10.070312 -19.25 11.285156 -20.542969 12.796875 -21.296875 C 14.355469 -22.078125 16.09375 -22 18.007812 -21.066406 L 18.066406 -21.035156 L 18.117188 -20.992188 C 18.859375 -20.34375 19.230469 -19.589844 19.230469 -18.734375 L 19.230469 -18.707031 C 19.1875 -17.953125 18.84375 -16.613281 18.203125 -14.6875 C 17.5625 -12.761719 16.699219 -10.957031 15.617188 -9.273438 C 15.070312 -8.421875 14.582031 -7.777344 14.15625 -7.339844 C 13.65625 -6.828125 13.199219 -6.570312 12.785156 -6.570312 Z M 28.941406 -12.589844 C 30.125 -6.902344 30.71875 -3.449219 30.71875 -2.238281 C 30.71875 -0.914062 30.410156 0.03125 29.792969 0.601562 C 29.1875 1.160156 28.25 1.441406 26.980469 1.441406 C 25.667969 1.441406 24.746094 1.054688 24.214844 0.28125 C 23.742188 -0.402344 23.265625 -1.996094 22.78125 -4.5 C 22.546875 -5.707031 22.347656 -6.605469 22.1875 -7.203125 C 22.109375 -7.484375 22.042969 -7.691406 21.984375 -7.820312 C 21.96875 -7.859375 21.957031 -7.882812 21.953125 -7.890625 C 22.023438 -7.796875 22.128906 -7.75 22.269531 -7.75 C 22.378906 -7.75 22.464844 -7.777344 22.527344 -7.832031 C 22.515625 -7.820312 22.492188 -7.796875 22.460938 -7.761719 C 22.375 -7.664062 22.257812 -7.511719 22.109375 -7.308594 C 21.800781 -6.882812 21.363281 -6.238281 20.796875 -5.382812 L 20.382812 -5.65625 L 20.804688 -5.394531 C 18.703125 -2.015625 15.953125 -0.328125 12.546875 -0.328125 C 9.148438 -0.328125 6.320312 -2.050781 4.0625 -5.5 C 2.402344 -8.085938 1.492188 -10.441406 1.332031 -12.570312 C 1.167969 -14.699219 1.613281 -16.867188 2.675781 -19.066406 C 3.71875 -21.238281 5.066406 -23.148438 6.71875 -24.796875 C 8.382812 -26.503906 9.882812 -27.566406 11.222656 -27.984375 L 11.371094 -27.511719 L 11.207031 -27.980469 C 14.695312 -29.171875 18.308594 -28.625 22.054688 -26.34375 C 24.253906 -25 25.648438 -23.78125 26.238281 -22.679688 C 26.8125 -21.660156 27.710938 -18.296875 28.9375 -12.59375 Z M 27.96875 -12.382812 C 26.761719 -17.992188 25.894531 -21.265625 25.363281 -22.207031 C 24.855469 -23.152344 23.582031 -24.246094 21.539062 -25.496094 C 18.058594 -27.613281 14.722656 -28.128906 11.53125 -27.039062 L 11.523438 -27.039062 L 11.519531 -27.035156 C 10.339844 -26.667969 8.976562 -25.6875 7.421875 -24.097656 C 5.851562 -22.527344 4.566406 -20.707031 3.570312 -18.636719 C 2.585938 -16.59375 2.171875 -14.597656 2.320312 -12.644531 C 2.472656 -10.6875 3.328125 -8.484375 4.894531 -6.046875 C 6.953125 -2.894531 9.507812 -1.320312 12.546875 -1.320312 C 15.582031 -1.320312 18.054688 -2.855469 19.960938 -5.917969 L 19.964844 -5.921875 L 19.96875 -5.929688 C 20.542969 -6.800781 20.988281 -7.453125 21.304688 -7.890625 C 21.472656 -8.117188 21.605469 -8.292969 21.707031 -8.410156 C 21.898438 -8.632812 22.085938 -8.746094 22.269531 -8.746094 C 22.535156 -8.746094 22.742188 -8.570312 22.894531 -8.21875 C 22.972656 -8.042969 23.054688 -7.792969 23.144531 -7.464844 C 23.316406 -6.84375 23.519531 -5.917969 23.757812 -4.6875 C 24.214844 -2.324219 24.640625 -0.851562 25.035156 -0.28125 C 25.367188 0.203125 26.015625 0.445312 26.980469 0.445312 C 27.988281 0.445312 28.703125 0.253906 29.117188 -0.128906 C 29.519531 -0.503906 29.722656 -1.207031 29.722656 -2.238281 C 29.722656 -3.382812 29.136719 -6.765625 27.964844 -12.386719 Z M 27.96875 -12.382812 "/></g></g></g><g fill="#3758f9" fill-opacity="1"><g transform="translate(97.102647, 42.359877)"><g><path d="M 12.785156 -7.566406 C 12.917969 -7.566406 13.140625 -7.722656 13.445312 -8.035156 C 13.824219 -8.421875 14.269531 -9.015625 14.78125 -9.8125 C 15.816406 -11.425781 16.644531 -13.15625 17.261719 -15.003906 C 17.875 -16.84375 18.199219 -18.097656 18.238281 -18.761719 L 18.734375 -18.734375 L 18.234375 -18.734375 C 18.234375 -19.289062 17.976562 -19.792969 17.464844 -20.242188 L 17.789062 -20.617188 L 17.570312 -20.171875 C 15.953125 -20.964844 14.507812 -21.042969 13.242188 -20.410156 C 11.925781 -19.75 10.863281 -18.609375 10.046875 -16.980469 C 9.230469 -15.347656 8.953125 -13.738281 9.210938 -12.15625 L 8.71875 -12.078125 L 9.207031 -12.175781 C 9.386719 -11.269531 9.921875 -10.261719 10.816406 -9.148438 C 11.65625 -8.09375 12.3125 -7.566406 12.785156 -7.566406 Z M 12.785156 -6.570312 C 11.996094 -6.570312 11.082031 -7.222656 10.039062 -8.527344 C 9.046875 -9.765625 8.441406 -10.917969 8.230469 -11.980469 L 8.230469 -11.988281 L 8.226562 -11.996094 C 7.9375 -13.789062 8.246094 -15.601562 9.15625 -17.421875 C 10.070312 -19.25 11.285156 -20.542969 12.796875 -21.296875 C 14.355469 -22.078125 16.09375 -22 18.007812 -21.066406 L 18.066406 -21.035156 L 18.117188 -20.992188 C 18.859375 -20.34375 19.230469 -19.589844 19.230469 -18.734375 L 19.230469 -18.707031 C 19.1875 -17.953125 18.84375 -16.613281 18.203125 -14.6875 C 17.5625 -12.761719 16.699219 -10.957031 15.617188 -9.273438 C 15.070312 -8.421875 14.582031 -7.777344 14.15625 -7.339844 C 13.65625 -6.828125 13.199219 -6.570312 12.785156 -6.570312 Z M 28.941406 -12.589844 C 30.125 -6.902344 30.71875 -3.449219 30.71875 -2.238281 C 30.71875 -0.914062 30.410156 0.03125 29.792969 0.601562 C 29.1875 1.160156 28.25 1.441406 26.980469 1.441406 C 25.667969 1.441406 24.746094 1.054688 24.214844 0.28125 C 23.742188 -0.402344 23.265625 -1.996094 22.78125 -4.5 C 22.546875 -5.707031 22.347656 -6.605469 22.1875 -7.203125 C 22.109375 -7.484375 22.042969 -7.691406 21.984375 -7.820312 C 21.96875 -7.859375 21.957031 -7.882812 21.953125 -7.890625 C 22.023438 -7.796875 22.128906 -7.75 22.269531 -7.75 C 22.378906 -7.75 22.464844 -7.777344 22.527344 -7.832031 C 22.515625 -7.820312 22.492188 -7.796875 22.460938 -7.761719 C 22.375 -7.664062 22.257812 -7.511719 22.109375 -7.308594 C 21.800781 -6.882812 21.363281 -6.238281 20.796875 -5.382812 L 20.382812 -5.65625 L 20.804688 -5.394531 C 18.703125 -2.015625 15.953125 -0.328125 12.546875 -0.328125 C 9.148438 -0.328125 6.320312 -2.050781 4.0625 -5.5 C 2.402344 -8.085938 1.492188 -10.441406 1.332031 -12.570312 C 1.167969 -14.699219 1.613281 -16.867188 2.675781 -19.066406 C 3.71875 -21.238281 5.066406 -23.148438 6.71875 -24.796875 C 8.382812 -26.503906 9.882812 -27.566406 11.222656 -27.984375 L 11.371094 -27.511719 L 11.207031 -27.980469 C 14.695312 -29.171875 18.308594 -28.625 22.054688 -26.34375 C 24.253906 -25 25.648438 -23.78125 26.238281 -22.679688 C 26.8125 -21.660156 27.710938 -18.296875 28.9375 -12.59375 Z M 27.96875 -12.382812 C 26.761719 -17.992188 25.894531 -21.265625 25.363281 -22.207031 C 24.855469 -23.152344 23.582031 -24.246094 21.539062 -25.496094 C 18.058594 -27.613281 14.722656 -28.128906 11.53125 -27.039062 L 11.523438 -27.039062 L 11.519531 -27.035156 C 10.339844 -26.667969 8.976562 -25.6875 7.421875 -24.097656 C 5.851562 -22.527344 4.566406 -20.707031 3.570312 -18.636719 C 2.585938 -16.59375 2.171875 -14.597656 2.320312 -12.644531 C 2.472656 -10.6875 3.328125 -8.484375 4.894531 -6.046875 C 6.953125 -2.894531 9.507812 -1.320312 12.546875 -1.320312 C 15.582031 -1.320312 18.054688 -2.855469 19.960938 -5.917969 L 19.964844 -5.921875 L 19.96875 -5.929688 C 20.542969 -6.800781 20.988281 -7.453125 21.304688 -7.890625 C 21.472656 -8.117188 21.605469 -8.292969 21.707031 -8.410156 C 21.898438 -8.632812 22.085938 -8.746094 22.269531 -8.746094 C 22.535156 -8.746094 22.742188 -8.570312 22.894531 -8.21875 C 22.972656 -8.042969 23.054688 -7.792969 23.144531 -7.464844 C 23.316406 -6.84375 23.519531 -5.917969 23.757812 -4.6875 C 24.214844 -2.324219 24.640625 -0.851562 25.035156 -0.28125 C 25.367188 0.203125 26.015625 0.445312 26.980469 0.445312 C 27.988281 0.445312 28.703125 0.253906 29.117188 -0.128906 C 29.519531 -0.503906 29.722656 -1.207031 29.722656 -2.238281 C 29.722656 -3.382812 29.136719 -6.765625 27.964844 -12.386719 Z M 27.96875 -12.382812 "/></g></g></g><g clip-path="url(#5e51a06132)"><g fill="#3758f9" fill-opacity="1"><g transform="translate(129.083534, 42.359877)"><g><path d="M 29.363281 -10.925781 C 29.601562 -6.496094 29.511719 -3.738281 29.09375 -2.648438 C 28.617188 -1.410156 27.554688 -0.8125 25.90625 -0.859375 L 25.921875 -1.355469 L 25.933594 -0.859375 C 24.292969 -0.8125 23.230469 -1.367188 22.75 -2.519531 C 22.335938 -3.515625 22.046875 -5.851562 21.890625 -9.523438 C 21.734375 -13.078125 21.394531 -15.496094 20.867188 -16.777344 L 20.859375 -16.789062 L 20.855469 -16.800781 C 20.429688 -18.007812 19.375 -19.011719 17.695312 -19.816406 C 16.011719 -20.621094 14.6875 -20.851562 13.714844 -20.503906 L 13.691406 -20.496094 C 12.988281 -20.285156 12.507812 -20.050781 12.25 -19.796875 L 11.898438 -20.148438 L 12.296875 -19.847656 C 12.109375 -19.597656 11.941406 -19.078125 11.800781 -18.289062 C 11.644531 -17.429688 11.289062 -15.351562 10.742188 -12.054688 C 10.191406 -8.761719 9.839844 -6.433594 9.683594 -5.070312 C 9.511719 -3.550781 8.933594 -2.433594 7.949219 -1.71875 L 7.929688 -1.703125 L 7.910156 -1.691406 C 6.851562 -1.074219 5.785156 -0.898438 4.710938 -1.167969 C 3.570312 -1.453125 2.882812 -2.105469 2.636719 -3.125 C 2.433594 -3.984375 2.253906 -9.519531 2.09375 -19.726562 C 1.9375 -29.859375 1.746094 -35.378906 1.519531 -36.285156 C 1.269531 -37.292969 1.1875 -38.070312 1.277344 -38.609375 C 1.371094 -39.183594 1.695312 -39.746094 2.242188 -40.292969 C 2.796875 -40.847656 3.546875 -41.171875 4.488281 -41.261719 C 5.429688 -41.347656 6.21875 -41.1875 6.867188 -40.769531 C 7.648438 -40.265625 8.269531 -39.023438 8.730469 -37.050781 C 9.167969 -35.175781 9.488281 -32.59375 9.6875 -29.308594 L 9.804688 -27.246094 L 9.308594 -27.214844 L 9.273438 -27.710938 L 13.394531 -28.007812 C 15.238281 -28.125 16.574219 -28.125 17.394531 -28.003906 C 18.21875 -27.878906 19.359375 -27.515625 20.808594 -26.910156 L 20.820312 -26.90625 L 20.828125 -26.898438 C 24.039062 -25.398438 26.210938 -23.453125 27.339844 -21.066406 C 28.449219 -18.730469 29.121094 -15.347656 29.363281 -10.925781 Z M 28.367188 -10.871094 C 28.136719 -15.164062 27.496094 -18.421875 26.441406 -20.640625 C 25.414062 -22.8125 23.402344 -24.597656 20.40625 -26 L 20.617188 -26.449219 L 20.425781 -25.992188 C 19.050781 -26.566406 17.992188 -26.90625 17.246094 -27.019531 C 16.496094 -27.132812 15.234375 -27.128906 13.464844 -27.015625 L 8.839844 -26.683594 L 8.695312 -29.246094 C 8.5 -32.480469 8.1875 -35.003906 7.761719 -36.824219 C 7.363281 -38.539062 6.882812 -39.574219 6.328125 -39.933594 C 5.875 -40.226562 5.292969 -40.339844 4.582031 -40.269531 C 3.878906 -40.203125 3.332031 -39.976562 2.945312 -39.589844 C 2.546875 -39.191406 2.320312 -38.8125 2.257812 -38.445312 C 2.191406 -38.042969 2.265625 -37.402344 2.484375 -36.527344 C 2.730469 -35.546875 2.929688 -29.953125 3.089844 -19.742188 C 3.246094 -9.605469 3.417969 -4.144531 3.605469 -3.355469 C 3.753906 -2.726562 4.203125 -2.320312 4.949219 -2.132812 C 5.761719 -1.929688 6.582031 -2.066406 7.40625 -2.550781 L 7.65625 -2.121094 L 7.367188 -2.523438 C 8.113281 -3.066406 8.554688 -3.953125 8.695312 -5.179688 C 8.855469 -6.566406 9.207031 -8.910156 9.761719 -12.21875 C 10.308594 -15.519531 10.664062 -17.601562 10.820312 -18.46875 C 10.992188 -19.410156 11.21875 -20.070312 11.503906 -20.445312 L 11.523438 -20.472656 L 11.546875 -20.5 C 11.921875 -20.871094 12.539062 -21.1875 13.40625 -21.449219 L 13.550781 -20.972656 L 13.382812 -21.441406 C 14.613281 -21.878906 16.191406 -21.636719 18.121094 -20.714844 C 20.054688 -19.789062 21.277344 -18.597656 21.792969 -17.132812 L 21.324219 -16.964844 L 21.785156 -17.15625 C 22.355469 -15.765625 22.722656 -13.234375 22.882812 -9.566406 C 23.035156 -6.011719 23.300781 -3.789062 23.667969 -2.902344 C 23.972656 -2.167969 24.71875 -1.820312 25.90625 -1.851562 L 25.933594 -1.851562 C 27.113281 -1.820312 27.855469 -2.203125 28.164062 -3.007812 C 28.53125 -3.960938 28.601562 -6.582031 28.367188 -10.871094 Z M 28.367188 -10.871094 "/></g></g></g></g><g fill="#3758f9" fill-opacity="1"><g transform="translate(159.88648, 42.359877)"><g><path d="M 1.269531 -2.945312 C 1.269531 -3.402344 1.535156 -4.011719 2.066406 -4.765625 L 2.472656 -4.476562 L 2.050781 -4.742188 C 2.964844 -6.199219 4.203125 -6.742188 5.769531 -6.375 C 7.300781 -6.015625 8.269531 -5.007812 8.671875 -3.359375 C 8.996094 -2.113281 8.710938 -1.070312 7.824219 -0.226562 C 6.960938 0.589844 5.917969 0.90625 4.699219 0.726562 C 3.484375 0.546875 2.601562 -0.00390625 2.046875 -0.921875 C 1.53125 -1.785156 1.269531 -2.460938 1.269531 -2.945312 Z M 2.265625 -2.945312 C 2.265625 -2.644531 2.476562 -2.140625 2.902344 -1.433594 C 3.292969 -0.78125 3.9375 -0.390625 4.84375 -0.257812 C 5.746094 -0.121094 6.511719 -0.355469 7.140625 -0.949219 C 7.742188 -1.523438 7.933594 -2.246094 7.707031 -3.121094 C 7.398438 -4.378906 6.679688 -5.140625 5.542969 -5.40625 C 4.4375 -5.667969 3.554688 -5.269531 2.894531 -4.214844 L 2.878906 -4.191406 C 2.46875 -3.609375 2.265625 -3.195312 2.265625 -2.945312 Z M 2.265625 -2.945312 "/></g></g></g><g fill="#3758f9" fill-opacity="1"><g transform="translate(169.957805, 42.359877)"><g><path d="M 1.269531 -2.945312 C 1.269531 -3.402344 1.535156 -4.011719 2.066406 -4.765625 L 2.472656 -4.476562 L 2.050781 -4.742188 C 2.964844 -6.199219 4.203125 -6.742188 5.769531 -6.375 C 7.300781 -6.015625 8.269531 -5.007812 8.671875 -3.359375 C 8.996094 -2.113281 8.710938 -1.070312 7.824219 -0.226562 C 6.960938 0.589844 5.917969 0.90625 4.699219 0.726562 C 3.484375 0.546875 2.601562 -0.00390625 2.046875 -0.921875 C 1.53125 -1.785156 1.269531 -2.460938 1.269531 -2.945312 Z M 2.265625 -2.945312 C 2.265625 -2.644531 2.476562 -2.140625 2.902344 -1.433594 C 3.292969 -0.78125 3.9375 -0.390625 4.84375 -0.257812 C 5.746094 -0.121094 6.511719 -0.355469 7.140625 -0.949219 C 7.742188 -1.523438 7.933594 -2.246094 7.707031 -3.121094 C 7.398438 -4.378906 6.679688 -5.140625 5.542969 -5.40625 C 4.4375 -5.667969 3.554688 -5.269531 2.894531 -4.214844 L 2.878906 -4.191406 C 2.46875 -3.609375 2.265625 -3.195312 2.265625 -2.945312 Z M 2.265625 -2.945312 "/></g></g></g><g fill="#3758f9" fill-opacity="1"><g transform="translate(180.035581, 42.359877)"><g/></g></g><g fill="#3758f9" fill-opacity="1"><g transform="translate(0.747713, 87.388178)"><g/></g></g><g fill="#3758f9" fill-opacity="1"><g transform="translate(22.657262, 87.388178)"><g/></g></g><g fill="#3758f9" fill-opacity="1"><g transform="translate(44.56681, 87.388178)"><g/></g></g><g fill="#3758f9" fill-opacity="1"><g transform="translate(66.476358, 87.388178)"><g/></g></g><g fill="#3758f9" fill-opacity="1"><g transform="translate(88.39595, 87.388178)"><g/></g></g><g fill="#3758f9" fill-opacity="1"><g transform="translate(88.39595, 87.388178)"><g><path d="M 34.699219 0.261719 C 32.972656 0.261719 31.914062 -0.28125 31.519531 -1.363281 C 31.1875 -2.277344 30.980469 -4.804688 30.902344 -8.945312 C 30.902344 -12.984375 30.773438 -15.410156 30.511719 -16.226562 L 30.984375 -16.375 L 30.523438 -16.191406 C 30.554688 -16.113281 30.632812 -16.066406 30.757812 -16.046875 C 30.820312 -16.039062 30.878906 -16.042969 30.929688 -16.066406 L 30.933594 -16.0625 C 30.800781 -15.945312 30.609375 -15.65625 30.363281 -15.199219 C 29.820312 -14.1875 28.980469 -12.394531 27.847656 -9.816406 C 26.707031 -7.21875 25.859375 -5.347656 25.308594 -4.203125 C 24.734375 -3.015625 24.136719 -2.09375 23.515625 -1.425781 C 22.808594 -0.675781 22.144531 -0.339844 21.527344 -0.421875 C 21.015625 -0.488281 20.300781 -0.757812 19.386719 -1.238281 C 18.449219 -1.730469 17.011719 -3.425781 15.078125 -6.320312 C 13.179688 -9.167969 11.519531 -12.074219 10.097656 -15.042969 L 10.542969 -15.257812 L 10.105469 -15.027344 C 9.742188 -15.714844 9.441406 -16.226562 9.203125 -16.5625 C 9.097656 -16.710938 9.011719 -16.816406 8.941406 -16.882812 C 8.921875 -16.898438 8.910156 -16.910156 8.90625 -16.910156 C 8.941406 -16.890625 8.988281 -16.882812 9.042969 -16.882812 C 9.210938 -16.882812 9.339844 -16.949219 9.417969 -17.082031 L 9.421875 -17.078125 C 9.398438 -16.996094 9.371094 -16.863281 9.34375 -16.679688 C 9.285156 -16.273438 9.222656 -15.660156 9.164062 -14.839844 C 9.039062 -13.175781 8.921875 -10.679688 8.804688 -7.347656 C 8.566406 -0.636719 8.285156 3.402344 7.964844 4.769531 C 7.78125 5.546875 7.441406 6.136719 6.941406 6.542969 C 6.4375 6.949219 5.792969 7.152344 5.007812 7.152344 L 5.007812 6.65625 L 5.03125 7.152344 C 4.019531 7.199219 3.1875 6.894531 2.535156 6.242188 C 1.90625 5.613281 1.527344 4.8125 1.390625 3.835938 C 1.269531 2.949219 1.230469 0.636719 1.269531 -3.097656 C 1.308594 -6.820312 1.527344 -11.667969 1.917969 -17.644531 C 2.3125 -23.636719 2.628906 -27.257812 2.871094 -28.515625 C 3.121094 -29.835938 3.625 -30.960938 4.386719 -31.890625 L 4.394531 -31.898438 L 4.402344 -31.910156 C 5.300781 -32.894531 6.300781 -33.339844 7.40625 -33.25 C 8.46875 -33.160156 9.238281 -32.875 9.71875 -32.398438 C 10.152344 -31.964844 10.992188 -30.382812 12.234375 -27.65625 C 13.449219 -24.996094 15.113281 -21.667969 17.226562 -17.667969 C 18.285156 -15.671875 19.109375 -14.160156 19.695312 -13.132812 C 19.984375 -12.625 20.214844 -12.238281 20.386719 -11.976562 C 20.46875 -11.851562 20.53125 -11.757812 20.582031 -11.691406 C 20.601562 -11.667969 20.613281 -11.652344 20.625 -11.644531 C 20.605469 -11.660156 20.582031 -11.679688 20.546875 -11.695312 L 20.324219 -11.25 L 20.464844 -11.726562 C 20.367188 -11.757812 20.277344 -11.753906 20.195312 -11.710938 C 20.183594 -11.707031 20.171875 -11.699219 20.164062 -11.695312 C 20.167969 -11.695312 20.171875 -11.699219 20.175781 -11.707031 C 20.230469 -11.757812 20.304688 -11.851562 20.398438 -11.988281 C 20.609375 -12.308594 20.890625 -12.808594 21.234375 -13.492188 C 21.9375 -14.886719 22.894531 -17.011719 24.109375 -19.871094 C 26.558594 -25.644531 28.269531 -29.15625 29.238281 -30.40625 L 29.25 -30.421875 L 29.261719 -30.433594 C 29.996094 -31.257812 30.90625 -31.800781 31.988281 -32.058594 C 33.113281 -32.328125 34.085938 -32.1875 34.914062 -31.636719 C 35.367188 -31.335938 35.769531 -30.617188 36.121094 -29.484375 C 36.449219 -28.441406 36.753906 -27.003906 37.042969 -25.171875 C 37.617188 -21.539062 37.941406 -17.785156 38.023438 -13.914062 C 38.101562 -10.070312 38.179688 -7.363281 38.257812 -5.796875 C 38.339844 -4.15625 38.210938 -2.890625 37.871094 -2.003906 L 37.40625 -2.179688 L 37.886719 -2.042969 C 37.613281 -1.09375 37.226562 -0.464844 36.71875 -0.164062 C 36.25 0.121094 35.574219 0.261719 34.699219 0.261719 Z M 34.699219 -0.734375 C 35.390625 -0.734375 35.894531 -0.828125 36.210938 -1.015625 C 36.488281 -1.183594 36.730469 -1.617188 36.929688 -2.316406 L 36.933594 -2.335938 L 36.941406 -2.355469 C 37.230469 -3.117188 37.339844 -4.246094 37.265625 -5.75 C 37.183594 -7.324219 37.105469 -10.039062 37.027344 -13.890625 C 36.949219 -17.71875 36.628906 -21.425781 36.0625 -25.019531 C 35.78125 -26.800781 35.484375 -28.191406 35.171875 -29.1875 C 34.890625 -30.097656 34.617188 -30.636719 34.363281 -30.808594 C 33.777344 -31.199219 33.0625 -31.292969 32.222656 -31.09375 C 31.339844 -30.878906 30.601562 -30.441406 30 -29.769531 L 29.632812 -30.101562 L 30.023438 -29.796875 C 29.109375 -28.613281 27.441406 -25.175781 25.023438 -19.480469 C 23.800781 -16.605469 22.835938 -14.460938 22.121094 -13.046875 C 21.761719 -12.324219 21.460938 -11.789062 21.222656 -11.433594 C 21.089844 -11.234375 20.96875 -11.085938 20.859375 -10.984375 C 20.640625 -10.773438 20.414062 -10.707031 20.179688 -10.777344 L 20.140625 -10.789062 L 20.101562 -10.808594 C 19.894531 -10.910156 19.46875 -11.523438 18.832031 -12.640625 C 18.238281 -13.675781 17.414062 -15.195312 16.351562 -17.203125 C 14.222656 -21.21875 12.550781 -24.566406 11.328125 -27.246094 C 10.136719 -29.863281 9.367188 -31.34375 9.015625 -31.695312 C 8.707031 -32 8.144531 -32.191406 7.324219 -32.257812 C 6.542969 -32.324219 5.816406 -31.984375 5.140625 -31.242188 L 4.773438 -31.574219 L 5.15625 -31.261719 C 4.503906 -30.460938 4.066406 -29.484375 3.847656 -28.332031 C 3.613281 -27.113281 3.300781 -23.53125 2.910156 -17.582031 C 2.519531 -11.621094 2.304688 -6.789062 2.265625 -3.085938 C 2.226562 0.597656 2.261719 2.863281 2.378906 3.703125 C 2.480469 4.457031 2.765625 5.070312 3.238281 5.539062 C 3.683594 5.984375 4.265625 6.191406 4.984375 6.160156 L 5.007812 6.160156 C 5.558594 6.160156 5.992188 6.03125 6.316406 5.769531 C 6.640625 5.507812 6.867188 5.097656 6.996094 4.539062 C 7.304688 3.238281 7.574219 -0.738281 7.808594 -7.382812 C 7.925781 -10.726562 8.046875 -13.234375 8.171875 -14.910156 C 8.234375 -15.757812 8.296875 -16.394531 8.363281 -16.824219 C 8.394531 -17.058594 8.433594 -17.238281 8.472656 -17.367188 C 8.574219 -17.707031 8.765625 -17.875 9.042969 -17.875 C 9.339844 -17.875 9.664062 -17.628906 10.015625 -17.136719 C 10.277344 -16.765625 10.601562 -16.214844 10.984375 -15.488281 L 10.992188 -15.472656 C 12.398438 -12.546875 14.035156 -9.683594 15.90625 -6.875 C 17.746094 -4.117188 19.058594 -2.53125 19.847656 -2.121094 C 20.660156 -1.695312 21.261719 -1.457031 21.65625 -1.40625 C 21.9375 -1.367188 22.316406 -1.601562 22.789062 -2.105469 C 23.34375 -2.699219 23.882812 -3.542969 24.410156 -4.632812 C 24.960938 -5.769531 25.800781 -7.628906 26.9375 -10.214844 C 28.082031 -12.820312 28.933594 -14.636719 29.488281 -15.667969 C 29.789062 -16.230469 30.050781 -16.609375 30.273438 -16.808594 C 30.476562 -16.988281 30.6875 -17.0625 30.90625 -17.03125 C 31.15625 -16.992188 31.339844 -16.835938 31.449219 -16.5625 L 31.453125 -16.542969 L 31.460938 -16.527344 C 31.75 -15.613281 31.894531 -13.09375 31.894531 -8.964844 C 31.972656 -4.933594 32.160156 -2.515625 32.453125 -1.703125 C 32.691406 -1.054688 33.4375 -0.734375 34.699219 -0.734375 Z M 34.699219 -0.734375 "/></g></g></g><g fill="#3758f9" fill-opacity="1"><g transform="translate(127.974498, 87.388178)"><g><path d="M 12.785156 -7.566406 C 12.917969 -7.566406 13.140625 -7.722656 13.445312 -8.035156 C 13.824219 -8.421875 14.269531 -9.015625 14.78125 -9.8125 C 15.816406 -11.425781 16.644531 -13.15625 17.261719 -15.003906 C 17.875 -16.84375 18.199219 -18.097656 18.238281 -18.761719 L 18.734375 -18.734375 L 18.234375 -18.734375 C 18.234375 -19.289062 17.976562 -19.792969 17.464844 -20.242188 L 17.789062 -20.617188 L 17.570312 -20.171875 C 15.953125 -20.964844 14.507812 -21.042969 13.242188 -20.410156 C 11.925781 -19.75 10.863281 -18.609375 10.046875 -16.980469 C 9.230469 -15.347656 8.953125 -13.738281 9.210938 -12.15625 L 8.71875 -12.078125 L 9.207031 -12.175781 C 9.386719 -11.269531 9.921875 -10.261719 10.816406 -9.148438 C 11.65625 -8.09375 12.3125 -7.566406 12.785156 -7.566406 Z M 12.785156 -6.570312 C 11.996094 -6.570312 11.082031 -7.222656 10.039062 -8.527344 C 9.046875 -9.765625 8.441406 -10.917969 8.230469 -11.980469 L 8.230469 -11.988281 L 8.226562 -11.996094 C 7.9375 -13.789062 8.246094 -15.601562 9.15625 -17.421875 C 10.070312 -19.25 11.285156 -20.542969 12.796875 -21.296875 C 14.355469 -22.078125 16.09375 -22 18.007812 -21.066406 L 18.066406 -21.035156 L 18.117188 -20.992188 C 18.859375 -20.34375 19.230469 -19.589844 19.230469 -18.734375 L 19.230469 -18.707031 C 19.1875 -17.953125 18.84375 -16.613281 18.203125 -14.6875 C 17.5625 -12.761719 16.699219 -10.957031 15.617188 -9.273438 C 15.070312 -8.421875 14.582031 -7.777344 14.15625 -7.339844 C 13.65625 -6.828125 13.199219 -6.570312 12.785156 -6.570312 Z M 28.941406 -12.589844 C 30.125 -6.902344 30.71875 -3.449219 30.71875 -2.238281 C 30.71875 -0.914062 30.410156 0.03125 29.792969 0.601562 C 29.1875 1.160156 28.25 1.441406 26.980469 1.441406 C 25.667969 1.441406 24.746094 1.054688 24.214844 0.28125 C 23.742188 -0.402344 23.265625 -1.996094 22.78125 -4.5 C 22.546875 -5.707031 22.347656 -6.605469 22.1875 -7.203125 C 22.109375 -7.484375 22.042969 -7.691406 21.984375 -7.820312 C 21.96875 -7.859375 21.957031 -7.882812 21.953125 -7.890625 C 22.023438 -7.796875 22.128906 -7.75 22.269531 -7.75 C 22.378906 -7.75 22.464844 -7.777344 22.527344 -7.832031 C 22.515625 -7.820312 22.492188 -7.796875 22.460938 -7.761719 C 22.375 -7.664062 22.257812 -7.511719 22.109375 -7.308594 C 21.800781 -6.882812 21.363281 -6.238281 20.796875 -5.382812 L 20.382812 -5.65625 L 20.804688 -5.394531 C 18.703125 -2.015625 15.953125 -0.328125 12.546875 -0.328125 C 9.148438 -0.328125 6.320312 -2.050781 4.0625 -5.5 C 2.402344 -8.085938 1.492188 -10.441406 1.332031 -12.570312 C 1.167969 -14.699219 1.613281 -16.867188 2.675781 -19.066406 C 3.71875 -21.238281 5.066406 -23.148438 6.71875 -24.796875 C 8.382812 -26.503906 9.882812 -27.566406 11.222656 -27.984375 L 11.371094 -27.511719 L 11.207031 -27.980469 C 14.695312 -29.171875 18.308594 -28.625 22.054688 -26.34375 C 24.253906 -25 25.648438 -23.78125 26.238281 -22.679688 C 26.8125 -21.660156 27.710938 -18.296875 28.9375 -12.59375 Z M 27.96875 -12.382812 C 26.761719 -17.992188 25.894531 -21.265625 25.363281 -22.207031 C 24.855469 -23.152344 23.582031 -24.246094 21.539062 -25.496094 C 18.058594 -27.613281 14.722656 -28.128906 11.53125 -27.039062 L 11.523438 -27.039062 L 11.519531 -27.035156 C 10.339844 -26.667969 8.976562 -25.6875 7.421875 -24.097656 C 5.851562 -22.527344 4.566406 -20.707031 3.570312 -18.636719 C 2.585938 -16.59375 2.171875 -14.597656 2.320312 -12.644531 C 2.472656 -10.6875 3.328125 -8.484375 4.894531 -6.046875 C 6.953125 -2.894531 9.507812 -1.320312 12.546875 -1.320312 C 15.582031 -1.320312 18.054688 -2.855469 19.960938 -5.917969 L 19.964844 -5.921875 L 19.96875 -5.929688 C 20.542969 -6.800781 20.988281 -7.453125 21.304688 -7.890625 C 21.472656 -8.117188 21.605469 -8.292969 21.707031 -8.410156 C 21.898438 -8.632812 22.085938 -8.746094 22.269531 -8.746094 C 22.535156 -8.746094 22.742188 -8.570312 22.894531 -8.21875 C 22.972656 -8.042969 23.054688 -7.792969 23.144531 -7.464844 C 23.316406 -6.84375 23.519531 -5.917969 23.757812 -4.6875 C 24.214844 -2.324219 24.640625 -0.851562 25.035156 -0.28125 C 25.367188 0.203125 26.015625 0.445312 26.980469 0.445312 C 27.988281 0.445312 28.703125 0.253906 29.117188 -0.128906 C 29.519531 -0.503906 29.722656 -1.207031 29.722656 -2.238281 C 29.722656 -3.382812 29.136719 -6.765625 27.964844 -12.386719 Z M 27.96875 -12.382812 "/></g></g></g><g fill="#3758f9" fill-opacity="1"><g transform="translate(159.955386, 87.388178)"><g><path d="M 12.785156 -7.566406 C 12.917969 -7.566406 13.140625 -7.722656 13.445312 -8.035156 C 13.824219 -8.421875 14.269531 -9.015625 14.78125 -9.8125 C 15.816406 -11.425781 16.644531 -13.15625 17.261719 -15.003906 C 17.875 -16.84375 18.199219 -18.097656 18.238281 -18.761719 L 18.734375 -18.734375 L 18.234375 -18.734375 C 18.234375 -19.289062 17.976562 -19.792969 17.464844 -20.242188 L 17.789062 -20.617188 L 17.570312 -20.171875 C 15.953125 -20.964844 14.507812 -21.042969 13.242188 -20.410156 C 11.925781 -19.75 10.863281 -18.609375 10.046875 -16.980469 C 9.230469 -15.347656 8.953125 -13.738281 9.210938 -12.15625 L 8.71875 -12.078125 L 9.207031 -12.175781 C 9.386719 -11.269531 9.921875 -10.261719 10.816406 -9.148438 C 11.65625 -8.09375 12.3125 -7.566406 12.785156 -7.566406 Z M 12.785156 -6.570312 C 11.996094 -6.570312 11.082031 -7.222656 10.039062 -8.527344 C 9.046875 -9.765625 8.441406 -10.917969 8.230469 -11.980469 L 8.230469 -11.988281 L 8.226562 -11.996094 C 7.9375 -13.789062 8.246094 -15.601562 9.15625 -17.421875 C 10.070312 -19.25 11.285156 -20.542969 12.796875 -21.296875 C 14.355469 -22.078125 16.09375 -22 18.007812 -21.066406 L 18.066406 -21.035156 L 18.117188 -20.992188 C 18.859375 -20.34375 19.230469 -19.589844 19.230469 -18.734375 L 19.230469 -18.707031 C 19.1875 -17.953125 18.84375 -16.613281 18.203125 -14.6875 C 17.5625 -12.761719 16.699219 -10.957031 15.617188 -9.273438 C 15.070312 -8.421875 14.582031 -7.777344 14.15625 -7.339844 C 13.65625 -6.828125 13.199219 -6.570312 12.785156 -6.570312 Z M 28.941406 -12.589844 C 30.125 -6.902344 30.71875 -3.449219 30.71875 -2.238281 C 30.71875 -0.914062 30.410156 0.03125 29.792969 0.601562 C 29.1875 1.160156 28.25 1.441406 26.980469 1.441406 C 25.667969 1.441406 24.746094 1.054688 24.214844 0.28125 C 23.742188 -0.402344 23.265625 -1.996094 22.78125 -4.5 C 22.546875 -5.707031 22.347656 -6.605469 22.1875 -7.203125 C 22.109375 -7.484375 22.042969 -7.691406 21.984375 -7.820312 C 21.96875 -7.859375 21.957031 -7.882812 21.953125 -7.890625 C 22.023438 -7.796875 22.128906 -7.75 22.269531 -7.75 C 22.378906 -7.75 22.464844 -7.777344 22.527344 -7.832031 C 22.515625 -7.820312 22.492188 -7.796875 22.460938 -7.761719 C 22.375 -7.664062 22.257812 -7.511719 22.109375 -7.308594 C 21.800781 -6.882812 21.363281 -6.238281 20.796875 -5.382812 L 20.382812 -5.65625 L 20.804688 -5.394531 C 18.703125 -2.015625 15.953125 -0.328125 12.546875 -0.328125 C 9.148438 -0.328125 6.320312 -2.050781 4.0625 -5.5 C 2.402344 -8.085938 1.492188 -10.441406 1.332031 -12.570312 C 1.167969 -14.699219 1.613281 -16.867188 2.675781 -19.066406 C 3.71875 -21.238281 5.066406 -23.148438 6.71875 -24.796875 C 8.382812 -26.503906 9.882812 -27.566406 11.222656 -27.984375 L 11.371094 -27.511719 L 11.207031 -27.980469 C 14.695312 -29.171875 18.308594 -28.625 22.054688 -26.34375 C 24.253906 -25 25.648438 -23.78125 26.238281 -22.679688 C 26.8125 -21.660156 27.710938 -18.296875 28.9375 -12.59375 Z M 27.96875 -12.382812 C 26.761719 -17.992188 25.894531 -21.265625 25.363281 -22.207031 C 24.855469 -23.152344 23.582031 -24.246094 21.539062 -25.496094 C 18.058594 -27.613281 14.722656 -28.128906 11.53125 -27.039062 L 11.523438 -27.039062 L 11.519531 -27.035156 C 10.339844 -26.667969 8.976562 -25.6875 7.421875 -24.097656 C 5.851562 -22.527344 4.566406 -20.707031 3.570312 -18.636719 C 2.585938 -16.59375 2.171875 -14.597656 2.320312 -12.644531 C 2.472656 -10.6875 3.328125 -8.484375 4.894531 -6.046875 C 6.953125 -2.894531 9.507812 -1.320312 12.546875 -1.320312 C 15.582031 -1.320312 18.054688 -2.855469 19.960938 -5.917969 L 19.964844 -5.921875 L 19.96875 -5.929688 C 20.542969 -6.800781 20.988281 -7.453125 21.304688 -7.890625 C 21.472656 -8.117188 21.605469 -8.292969 21.707031 -8.410156 C 21.898438 -8.632812 22.085938 -8.746094 22.269531 -8.746094 C 22.535156 -8.746094 22.742188 -8.570312 22.894531 -8.21875 C 22.972656 -8.042969 23.054688 -7.792969 23.144531 -7.464844 C 23.316406 -6.84375 23.519531 -5.917969 23.757812 -4.6875 C 24.214844 -2.324219 24.640625 -0.851562 25.035156 -0.28125 C 25.367188 0.203125 26.015625 0.445312 26.980469 0.445312 C 27.988281 0.445312 28.703125 0.253906 29.117188 -0.128906 C 29.519531 -0.503906 29.722656 -1.207031 29.722656 -2.238281 C 29.722656 -3.382812 29.136719 -6.765625 27.964844 -12.386719 Z M 27.96875 -12.382812 "/></g></g></g><g fill="#3758f9" fill-opacity="1"><g transform="translate(191.936273, 87.388178)"><g><path d="M 9.28125 -10.308594 L 9.28125 -17.96875 L 9.777344 -17.96875 L 9.777344 -17.46875 L 6.644531 -17.46875 C 4.867188 -17.511719 3.550781 -17.789062 2.691406 -18.308594 C 1.742188 -18.875 1.269531 -19.800781 1.269531 -21.089844 C 1.269531 -22.363281 1.65625 -23.265625 2.429688 -23.796875 C 3.128906 -24.277344 4.464844 -24.601562 6.4375 -24.765625 L 10.03125 -25.0625 L 10.074219 -24.566406 L 9.578125 -24.613281 L 9.992188 -28.855469 C 10.558594 -34.308594 11.984375 -37.828125 14.269531 -39.40625 C 15.582031 -40.339844 17.089844 -40.722656 18.78125 -40.554688 C 20.410156 -40.390625 22.546875 -39.6875 25.1875 -38.445312 C 27.859375 -37.191406 29.53125 -36.097656 30.210938 -35.167969 C 30.957031 -34.140625 31.011719 -32.984375 30.371094 -31.707031 C 29.730469 -30.421875 28.796875 -29.78125 27.570312 -29.78125 C 26.480469 -29.78125 24.628906 -30.34375 22.011719 -31.472656 C 20.753906 -32.015625 19.78125 -32.386719 19.09375 -32.585938 C 18.773438 -32.679688 18.523438 -32.734375 18.347656 -32.746094 C 18.285156 -32.753906 18.242188 -32.753906 18.214844 -32.746094 C 18.246094 -32.753906 18.28125 -32.777344 18.320312 -32.8125 L 17.96875 -33.164062 L 18.382812 -32.890625 C 18.117188 -32.492188 17.851562 -29.847656 17.578125 -24.949219 L 17.082031 -24.976562 L 17.152344 -25.46875 C 20.507812 -25 22.527344 -24.769531 23.210938 -24.769531 C 24.054688 -24.769531 24.878906 -24.367188 25.683594 -23.5625 C 26.492188 -22.753906 26.875 -21.746094 26.828125 -20.539062 L 26.332031 -20.558594 L 26.828125 -20.578125 C 26.875 -19.304688 26.410156 -18.421875 25.433594 -17.933594 C 24.574219 -17.503906 22.984375 -17.328125 20.660156 -17.410156 L 16.773438 -17.53125 L 16.789062 -18.027344 L 17.285156 -17.976562 C 16.777344 -12.746094 16.71875 -8.164062 17.105469 -4.230469 C 17.503906 -0.226562 17.660156 2.105469 17.578125 2.769531 C 17.484375 3.523438 17.074219 4.21875 16.351562 4.851562 C 15.613281 5.496094 14.78125 5.773438 13.851562 5.679688 C 12.917969 5.589844 12.074219 5.191406 11.324219 4.484375 C 10.609375 3.839844 10.085938 2.25 9.757812 -0.273438 C 9.441406 -2.703125 9.28125 -6.046875 9.28125 -10.308594 Z M 10.277344 -10.308594 C 10.277344 -6.089844 10.433594 -2.789062 10.742188 -0.402344 C 11.042969 1.882812 11.460938 3.269531 12.003906 3.761719 C 12.589844 4.3125 13.238281 4.621094 13.953125 4.6875 C 14.59375 4.753906 15.175781 4.558594 15.695312 4.101562 C 16.230469 3.636719 16.527344 3.152344 16.589844 2.648438 C 16.664062 2.054688 16.507812 -0.203125 16.117188 -4.132812 C 15.722656 -8.132812 15.78125 -12.78125 16.292969 -18.074219 L 16.339844 -18.539062 L 20.695312 -18.40625 C 22.847656 -18.328125 24.28125 -18.46875 24.992188 -18.824219 C 25.585938 -19.121094 25.867188 -19.695312 25.835938 -20.539062 L 25.835938 -20.578125 C 25.871094 -21.492188 25.585938 -22.253906 24.980469 -22.859375 C 24.371094 -23.46875 23.78125 -23.773438 23.210938 -23.773438 C 22.480469 -23.773438 20.414062 -24.011719 17.015625 -24.484375 L 16.5625 -24.546875 L 16.585938 -25.003906 C 16.867188 -30.082031 17.1875 -32.894531 17.554688 -33.441406 L 17.582031 -33.484375 L 17.617188 -33.515625 C 17.792969 -33.695312 18.0625 -33.769531 18.425781 -33.738281 C 18.671875 -33.71875 18.988281 -33.652344 19.371094 -33.539062 C 20.097656 -33.328125 21.109375 -32.941406 22.40625 -32.386719 C 24.894531 -31.3125 26.617188 -30.777344 27.570312 -30.777344 C 28.386719 -30.777344 29.023438 -31.234375 29.480469 -32.152344 C 29.941406 -33.070312 29.914062 -33.878906 29.40625 -34.582031 C 28.828125 -35.378906 27.28125 -36.363281 24.765625 -37.546875 C 22.226562 -38.738281 20.199219 -39.414062 18.683594 -39.5625 C 17.234375 -39.707031 15.953125 -39.382812 14.832031 -38.589844 C 12.796875 -37.183594 11.515625 -33.90625 10.980469 -28.757812 L 10.527344 -24.105469 L 6.519531 -23.773438 C 4.722656 -23.625 3.546875 -23.359375 2.992188 -22.976562 C 2.507812 -22.644531 2.265625 -22.015625 2.265625 -21.089844 C 2.265625 -20.175781 2.578125 -19.535156 3.203125 -19.160156 C 3.910156 -18.734375 5.066406 -18.5 6.667969 -18.464844 L 6.65625 -17.96875 L 6.65625 -18.464844 L 10.277344 -18.464844 Z M 10.277344 -10.308594 "/></g></g></g><g fill="#3758f9" fill-opacity="1"><g transform="translate(224.03494, 87.388178)"><g><path d="M 3.042969 0.324219 C 2.253906 -0.324219 1.859375 -1.140625 1.859375 -2.121094 C 1.859375 -3.078125 2.21875 -3.9375 2.9375 -4.699219 C 4.023438 -5.878906 5.339844 -6.195312 6.882812 -5.652344 C 8.4375 -5.101562 9.214844 -3.984375 9.214844 -2.296875 C 9.214844 -0.621094 8.484375 0.515625 7.019531 1.109375 C 5.570312 1.699219 4.234375 1.429688 3.019531 0.304688 L 3.359375 -0.0585938 Z M 3.675781 -0.441406 L 3.695312 -0.421875 C 4.601562 0.414062 5.585938 0.617188 6.644531 0.1875 C 7.695312 -0.238281 8.222656 -1.066406 8.222656 -2.296875 C 8.222656 -3.515625 7.664062 -4.320312 6.550781 -4.714844 C 5.421875 -5.113281 4.457031 -4.882812 3.660156 -4.019531 C 3.121094 -3.445312 2.851562 -2.8125 2.851562 -2.121094 C 2.851562 -1.453125 3.125 -0.894531 3.675781 -0.441406 Z M 1.984375 -19.597656 C 1.507812 -22.527344 1.269531 -25.265625 1.269531 -27.804688 C 1.269531 -30.347656 1.332031 -31.984375 1.453125 -32.71875 C 1.585938 -33.523438 1.945312 -34.234375 2.523438 -34.859375 L 2.527344 -34.867188 L 2.535156 -34.871094 C 3.289062 -35.625 4.085938 -36.039062 4.921875 -36.105469 C 5.761719 -36.175781 6.613281 -35.898438 7.476562 -35.277344 L 7.1875 -34.875 L 7.460938 -35.289062 C 8.054688 -34.894531 8.441406 -34.113281 8.621094 -32.945312 C 8.78125 -31.910156 9.015625 -29.070312 9.332031 -24.421875 C 9.570312 -19.773438 9.6875 -17.011719 9.6875 -16.140625 C 9.6875 -15.15625 9.453125 -14.382812 8.984375 -13.820312 C 8.492188 -13.230469 7.617188 -12.933594 6.363281 -12.933594 C 5.097656 -12.933594 4.179688 -13.316406 3.609375 -14.074219 L 4.003906 -14.375 L 3.632812 -14.046875 C 3.019531 -14.746094 2.46875 -16.597656 1.984375 -19.597656 Z M 2.964844 -19.753906 C 3.421875 -16.941406 3.894531 -15.257812 4.378906 -14.703125 L 4.402344 -14.671875 C 4.773438 -14.175781 5.429688 -13.929688 6.363281 -13.929688 C 7.304688 -13.929688 7.925781 -14.105469 8.21875 -14.457031 C 8.535156 -14.835938 8.691406 -15.398438 8.691406 -16.140625 C 8.691406 -16.996094 8.574219 -19.734375 8.339844 -24.355469 C 8.027344 -28.976562 7.792969 -31.789062 7.636719 -32.796875 C 7.503906 -33.671875 7.261719 -34.226562 6.910156 -34.460938 L 6.902344 -34.464844 L 6.898438 -34.46875 C 6.230469 -34.949219 5.597656 -35.164062 5.003906 -35.113281 C 4.410156 -35.066406 3.820312 -34.75 3.238281 -34.167969 L 2.886719 -34.519531 L 3.25 -34.183594 C 2.808594 -33.707031 2.535156 -33.164062 2.433594 -32.554688 C 2.320312 -31.875 2.265625 -30.292969 2.265625 -27.804688 C 2.265625 -25.316406 2.496094 -22.636719 2.964844 -19.753906 Z M 2.964844 -19.753906 "/></g></g></g><g fill="#3758f9" fill-opacity="1"><g transform="translate(234.995003, 87.388178)"><g/></g></g></g></g></g></svg>